<svg width="36" height="36" viewBox="0 0 36 36" fill="none" xmlns="http://www.w3.org/2000/svg">
<path fill-rule="evenodd" clip-rule="evenodd" d="M12.6554 4.13493C14.1904 -1.24395 21.8134 -1.24395 23.3484 4.13493C23.8387 5.85268 25.6034 6.87156 27.3361 6.43724C32.7619 5.0772 36.5734 11.6789 32.6827 15.6977C31.4402 16.9811 31.4402 19.0189 32.6827 20.3023C36.5734 24.3212 32.7619 30.9228 27.3361 29.5628C25.6034 29.1284 23.8387 30.1473 23.3484 31.8651C21.8134 37.244 14.1904 37.244 12.6554 31.8651C12.1652 30.1473 10.4004 29.1284 8.66767 29.5628C3.24188 30.9228 -0.569585 24.3212 3.32114 20.3023C4.56363 19.0189 4.56363 16.9811 3.32114 15.6977C-0.569584 11.6789 3.24188 5.0772 8.66767 6.43724C10.4004 6.87157 12.1652 5.85268 12.6554 4.13493ZM22.7827 13.2192C23.2221 13.6586 23.2221 14.3709 22.7827 14.8102L14.2974 23.2955C13.8581 23.7348 13.1458 23.7348 12.7065 23.2955C12.2671 22.8562 12.2671 22.1438 12.7065 21.7045L21.1917 13.2192C21.6311 12.7799 22.3434 12.7799 22.7827 13.2192ZM13.502 15.0001C12.6735 15.0001 12.002 14.3285 12.002 13.5001C12.002 12.6716 12.6735 12.0001 13.502 12.0001C14.3304 12.0001 15.002 12.6716 15.002 13.5001C15.002 14.3285 14.3304 15.0001 13.502 15.0001ZM22.502 24.0001C21.6735 24.0001 21.002 23.3285 21.002 22.5001C21.002 21.6716 21.6735 21.0001 22.502 21.0001C23.3304 21.0001 24.002 21.6716 24.002 22.5001C24.002 23.3285 23.3304 24.0001 22.502 24.0001Z" fill="#0061FF"/>
</svg>
