<svg width="36" height="36" viewBox="0 0 36 36" fill="none" xmlns="http://www.w3.org/2000/svg">
<path fill-rule="evenodd" clip-rule="evenodd" d="M9.44381 7.90535C9.98168 3.65874 13.6074 0.375 18 0.375C22.3983 0.375 26.0276 3.66715 26.5583 7.92166C28.6044 8.00196 30.1526 8.22982 31.4558 8.94927C32.5711 9.56503 33.5286 10.4158 34.2674 11.4337C33.7196 11.9682 33.1371 12.544 33.0782 12.6029L27.6292 18.0519C25.1067 20.5744 23.2931 22.3846 21.7289 23.578C20.1907 24.7517 19.0265 25.2224 17.818 25.2224C16.6096 25.2224 15.4454 24.7517 13.9072 23.578C12.3429 22.3846 10.5294 20.5744 8.00693 18.0519L1.5905 11.6355C2.34688 10.5281 3.35598 9.60528 4.54425 8.94927C5.84226 8.23266 7.39557 7.99018 9.44381 7.90535ZM11.7253 7.86737C11.9859 7.86796 12.2543 7.86937 12.5302 7.87083C12.9189 7.87287 13.3226 7.875 13.7405 7.875H22.2679C22.9874 7.875 23.6557 7.875 24.2767 7.87858C23.7468 4.89255 21.1382 2.625 18 2.625C14.8657 2.625 12.2597 4.88688 11.7253 7.86737Z" fill="#0061FF"/>
<path d="M35.3689 13.4942L29.1593 19.7038C26.7109 22.1522 24.7921 24.071 23.0937 25.3668C21.3553 26.6932 19.7162 27.4724 17.818 27.4724C15.9199 27.4724 14.2808 26.6932 12.5424 25.3668C10.844 24.071 8.92524 22.1523 6.47689 19.7039L0.540964 13.7679C0.253045 14.7128 0.174653 15.7442 0.205491 16.9426C0.242137 18.3666 0.438666 20.1353 0.689916 22.3965L0.701013 22.4964C0.906303 24.344 1.06759 25.7957 1.28949 26.9605C1.51588 28.1488 1.81955 29.1244 2.35394 29.9986C3.23603 31.4415 4.52287 32.5933 6.05439 33.3107C6.98222 33.7453 7.98538 33.9393 9.19149 34.0331C10.3736 34.125 11.834 34.125 13.6928 34.125H22.3068C24.1656 34.125 25.6264 34.125 26.8085 34.0331C28.0146 33.9393 29.0178 33.7453 29.9456 33.3107C31.4771 32.5933 32.764 31.4415 33.6461 29.9986C34.1805 29.1244 34.4841 28.1488 34.7105 26.9605C34.9324 25.7958 35.0937 24.3443 35.2989 22.4969L35.3101 22.3966C35.5613 20.1359 35.7579 18.3664 35.7945 16.9426C35.8284 15.6275 35.7307 14.5135 35.3689 13.4942Z" fill="#0061FF"/>
</svg>
