<svg width="36" height="36" viewBox="0 0 36 36" fill="none" xmlns="http://www.w3.org/2000/svg">
<path d="M9 34.5001H4.5C3.675 34.5001 2.969 34.2066 2.382 33.6196C1.795 33.0326 1.501 32.3261 1.5 31.5001V27.0001H4.5V31.5001H9V34.5001ZM27 34.5001V31.5001H31.5V27.0001H34.5V31.5001C34.5 32.3251 34.2065 33.0316 33.6195 33.6196C33.0325 34.2076 32.326 34.5011 31.5 34.5001H27ZM18 27.7501C15 27.7501 12.2815 26.8626 9.8445 25.0876C7.4075 23.3126 5.626 20.9501 4.5 18.0001C5.625 15.0501 7.4065 12.6876 9.8445 10.9126C12.2825 9.13756 15.001 8.25006 18 8.25006C20.999 8.25006 23.718 9.13756 26.157 10.9126C28.596 12.6876 30.377 15.0501 31.5 18.0001C30.375 20.9501 28.594 23.3126 26.157 25.0876C23.72 26.8626 21.001 27.7501 18 27.7501ZM18 23.2501C19.45 23.2501 20.6875 22.7376 21.7125 21.7126C22.7375 20.6876 23.25 19.4501 23.25 18.0001C23.25 16.5501 22.7375 15.3126 21.7125 14.2876C20.6875 13.2626 19.45 12.7501 18 12.7501C16.55 12.7501 15.3125 13.2626 14.2875 14.2876C13.2625 15.3126 12.75 16.5501 12.75 18.0001C12.75 19.4501 13.2625 20.6876 14.2875 21.7126C15.3125 22.7376 16.55 23.2501 18 23.2501ZM18 20.2501C17.375 20.2501 16.844 20.0316 16.407 19.5946C15.97 19.1576 15.751 18.6261 15.75 18.0001C15.749 17.3741 15.968 16.8431 16.407 16.4071C16.846 15.9711 17.377 15.7521 18 15.7501C18.623 15.7481 19.1545 15.9671 19.5945 16.4071C20.0345 16.8471 20.253 17.3781 20.25 18.0001C20.247 18.6221 20.0285 19.1536 19.5945 19.5946C19.1605 20.0356 18.629 20.2541 18 20.2501ZM1.5 9.00006V4.50006C1.5 3.67506 1.794 2.96906 2.382 2.38206C2.97 1.79506 3.676 1.50106 4.5 1.50006H9V4.50006H4.5V9.00006H1.5ZM31.5 9.00006V4.50006H27V1.50006H31.5C32.325 1.50006 33.0315 1.79406 33.6195 2.38206C34.2075 2.97006 34.501 3.67606 34.5 4.50006V9.00006H31.5Z" fill="#0061FF"/>
</svg>
