<svg width="40" height="40" viewBox="0 0 40 40" fill="none" xmlns="http://www.w3.org/2000/svg">
<path fill-rule="evenodd" clip-rule="evenodd" d="M11.4438 9.90535C11.9817 5.65874 15.6074 2.375 20 2.375C24.3983 2.375 28.0276 5.66715 28.5583 9.92166C30.6044 10.002 32.1526 10.2298 33.4558 10.9493C34.5711 11.565 35.5286 12.4158 36.2674 13.4337C35.7196 13.9682 35.1371 14.544 35.0782 14.6029L29.6292 20.0519C27.1067 22.5744 25.2931 24.3846 23.7289 25.578C22.1907 26.7517 21.0265 27.2224 19.818 27.2224C18.6096 27.2224 17.4454 26.7517 15.9072 25.578C14.3429 24.3846 12.5294 22.5744 10.0069 20.0519L3.5905 13.6355C4.34688 12.5281 5.35598 11.6053 6.54425 10.9493C7.84226 10.2327 9.39557 9.99018 11.4438 9.90535ZM13.7253 9.86737C13.9859 9.86796 14.2543 9.86937 14.5302 9.87083C14.9189 9.87287 15.3226 9.875 15.7405 9.875H24.2679C24.9874 9.875 25.6557 9.875 26.2767 9.87858C25.7468 6.89255 23.1382 4.625 20 4.625C16.8657 4.625 14.2597 6.88688 13.7253 9.86737Z" fill="#0061FF"/>
<path d="M37.3689 15.4942L31.1593 21.7038C28.7109 24.1522 26.7921 26.071 25.0937 27.3668C23.3553 28.6932 21.7162 29.4724 19.818 29.4724C17.9199 29.4724 16.2808 28.6932 14.5424 27.3668C12.844 26.071 10.9252 24.1523 8.47689 21.7039L2.54096 15.7679C2.25304 16.7128 2.17465 17.7442 2.20549 18.9426C2.24214 20.3666 2.43867 22.1353 2.68992 24.3965L2.70101 24.4964C2.9063 26.344 3.06759 27.7957 3.28949 28.9605C3.51588 30.1488 3.81955 31.1244 4.35394 31.9986C5.23603 33.4415 6.52287 34.5933 8.05439 35.3107C8.98222 35.7453 9.98538 35.9393 11.1915 36.0331C12.3736 36.125 13.834 36.125 15.6928 36.125H24.3068C26.1656 36.125 27.6264 36.125 28.8085 36.0331C30.0146 35.9393 31.0178 35.7453 31.9456 35.3107C33.4771 34.5933 34.764 33.4415 35.6461 31.9986C36.1805 31.1244 36.4841 30.1488 36.7105 28.9605C36.9324 27.7958 37.0937 26.3443 37.2989 24.4969L37.3101 24.3966C37.5613 22.1359 37.7579 20.3664 37.7945 18.9426C37.8284 17.6275 37.7307 16.5135 37.3689 15.4942Z" fill="#0061FF"/>
</svg>
