<svg width="36" height="36" viewBox="0 0 36 36" fill="none" xmlns="http://www.w3.org/2000/svg">
<path d="M28.4917 6.96364C27.5719 6.67369 26.5382 6.53292 25.344 6.45922C23.9789 6.37499 22.3201 6.375 20.2849 6.375H15.6911C13.286 6.37499 11.4006 6.37498 9.8943 6.5182C8.35898 6.66418 7.10182 6.96685 5.99359 7.64598C4.83305 8.35716 3.8573 9.33291 3.14612 10.4934C3.12092 10.5346 3.09625 10.5759 3.07208 10.6174C3.18802 8.4527 3.49085 7.01899 4.28182 5.884C4.69574 5.29005 5.19676 4.76772 5.76648 4.33619C7.53054 3 10.0469 3 15.0798 3H23.1328C25.6637 3 26.9291 3 27.7153 3.81967C28.3192 4.44921 28.4592 5.37342 28.4917 6.96364Z" fill="#0061FF"/>
<path d="M4.1052 11.0813C3 12.8848 3 15.3399 3 20.25C3 25.1601 3 27.6152 4.1052 29.4187C4.72362 30.4279 5.57209 31.2764 6.58126 31.8948C8.38478 33 10.8399 33 15.75 33H20.25C25.1601 33 27.6152 33 29.4187 31.8948C30.4279 31.2764 31.2764 30.4279 31.8948 29.4187C32.6206 28.2343 32.8698 26.7688 32.9553 24.5114H23.4547C20.574 24.5114 18.2388 22.1762 18.2388 19.2955C18.2388 16.4148 20.574 14.0796 23.4547 14.0796H32.8165C32.6662 12.8381 32.3926 11.8936 31.8948 11.0813C31.2764 10.0721 30.4279 9.22362 29.4187 8.6052C29.1315 8.42915 28.8276 8.28115 28.5 8.15672C26.7708 7.5 24.378 7.5 20.25 7.5H15.75C10.8399 7.5 8.38478 7.5 6.58126 8.6052C5.57209 9.22362 4.72362 10.0721 4.1052 11.0813Z" fill="#0061FF"/>
<path fill-rule="evenodd" clip-rule="evenodd" d="M32.9668 16.3296H23.4547C21.8167 16.3296 20.4888 17.6575 20.4888 19.2955C20.4888 20.9335 21.8167 22.2614 23.4547 22.2614H32.9965C33 21.6401 33 20.9716 33 20.25C33 18.7241 33 17.4354 32.9668 16.3296ZM23.4547 18.1705C22.8334 18.1705 22.3297 18.6742 22.3297 19.2955C22.3297 19.9168 22.8334 20.4205 23.4547 20.4205H27.5456C28.1669 20.4205 28.6706 19.9168 28.6706 19.2955C28.6706 18.6742 28.1669 18.1705 27.5456 18.1705H23.4547Z" fill="#0061FF"/>
</svg>
