<svg width="36" height="36" viewBox="0 0 36 36" fill="none" xmlns="http://www.w3.org/2000/svg">
<path fill-rule="evenodd" clip-rule="evenodd" d="M19.8474 2.04003C20.7954 0.903028 22.6419 1.68003 22.4919 3.15303L21.4329 13.5H29.9994C30.2845 13.5001 30.5636 13.5814 30.804 13.7344C31.0445 13.8874 31.2364 14.1058 31.3573 14.3639C31.4782 14.622 31.523 14.9092 31.4866 15.1919C31.4501 15.4746 31.3339 15.741 31.1514 15.96L16.1514 33.96C15.2034 35.097 13.3569 34.32 13.5069 32.847L14.5659 22.5H5.99944C5.71442 22.4999 5.43533 22.4186 5.19484 22.2656C4.95436 22.1126 4.76245 21.8943 4.64157 21.6362C4.5207 21.378 4.47586 21.0908 4.51232 20.8082C4.54878 20.5255 4.66503 20.259 4.84744 20.04L19.8474 2.04003Z" fill="#0061FF"/>
</svg>
