<svg width="56" height="56" viewBox="0 0 56 56" fill="none" xmlns="http://www.w3.org/2000/svg">
<path fill-rule="evenodd" clip-rule="evenodd" d="M4.66536 4.66663C4.04653 4.66663 3.45303 4.91246 3.01545 5.35004C2.57786 5.78763 2.33203 6.38112 2.33203 6.99996V39.6666C2.33203 42.826 4.42503 45.4953 7.2997 46.368C7.72764 47.7796 8.5906 49.02 9.76539 49.9121C10.9402 50.8042 12.3668 51.3023 13.8415 51.3354C15.3162 51.3686 16.7637 50.9349 17.9774 50.0965C19.191 49.2581 20.1088 48.0577 20.5997 46.6666H35.3977C35.8886 48.0577 36.8063 49.2581 38.02 50.0965C39.2337 50.9349 40.6812 51.3686 42.1559 51.3354C43.6306 51.3023 45.0572 50.8042 46.232 49.9121C47.4068 49.02 48.2698 47.7796 48.6977 46.368C50.1352 45.9318 51.3942 45.0448 52.2888 43.8381C53.1833 42.6313 53.666 41.1688 53.6654 39.6666V30.3333C53.6654 28.8012 53.3636 27.2841 52.7773 25.8687C52.191 24.4532 51.3316 23.1671 50.2483 22.0837C49.1649 21.0004 47.8788 20.141 46.4633 19.5547C45.0479 18.9684 43.5308 18.6666 41.9987 18.6666H32.6654V6.99996C32.6654 6.38112 32.4195 5.78763 31.9819 5.35004C31.5444 4.91246 30.9509 4.66663 30.332 4.66663H4.66536ZM35.3977 42H32.6654V23.3333H41.9987C43.8552 23.3333 45.6357 24.0708 46.9484 25.3835C48.2612 26.6963 48.9987 28.4768 48.9987 30.3333V39.6666C48.9986 40.2854 48.7526 40.8788 48.315 41.3163C47.7185 40.0667 46.7648 39.022 45.5744 38.3145C44.3841 37.607 43.0107 37.2684 41.6279 37.3416C40.2451 37.4148 38.9151 37.8965 37.8061 38.7257C36.6971 39.5549 35.859 40.6943 35.3977 42ZM12.349 42.6836C12.5643 42.4608 12.8217 42.283 13.1064 42.1607C13.3911 42.0384 13.6973 41.9741 14.0071 41.9714C14.3169 41.9687 14.6242 42.0277 14.9109 42.145C15.1977 42.2624 15.4582 42.4356 15.6773 42.6547C15.8964 42.8738 16.0696 43.1343 16.1869 43.4211C16.3043 43.7078 16.3633 44.0151 16.3606 44.3249C16.3579 44.6347 16.2936 44.9409 16.1713 45.2256C16.049 45.5102 15.8712 45.7677 15.6484 45.983C15.2083 46.408 14.6189 46.6432 14.0071 46.6379C13.3953 46.6325 12.8101 46.3872 12.3775 45.9545C11.9448 45.5219 11.6994 44.9367 11.6941 44.3249C11.6888 43.7131 11.924 43.1237 12.349 42.6836ZM39.6654 44.3333C39.6654 43.7145 39.9112 43.121 40.3488 42.6834C40.7864 42.2458 41.3799 42 41.9987 42C42.6175 42 43.211 42.2458 43.6486 42.6834C44.0862 43.121 44.332 43.7145 44.332 44.3333C44.332 44.9521 44.0862 45.5456 43.6486 45.9832C43.211 46.4208 42.6175 46.6666 41.9987 46.6666C41.3799 46.6666 40.7864 46.4208 40.3488 45.9832C39.9112 45.5456 39.6654 44.9521 39.6654 44.3333Z" fill="#0061FF"/>
</svg>
