<svg width="108" height="36" viewBox="0 0 108 36" fill="none" xmlns="http://www.w3.org/2000/svg">
<rect width="108" height="36" rx="18" fill="#D9E1F3"/>
<path d="M17.3346 21.0001C19.3597 21.0001 21.0013 19.3585 21.0013 17.3334C21.0013 15.3084 19.3597 13.6667 17.3346 13.6667C15.3096 13.6667 13.668 15.3084 13.668 17.3334C13.668 19.3585 15.3096 21.0001 17.3346 21.0001Z" stroke="#4D4D4D"/>
<path d="M20 20L22.6667 22.6667" stroke="#4D4D4D" stroke-linecap="round" stroke-linejoin="round"/>
<path d="M38.1357 13.2727V22H37.3601L32.2038 14.6918H32.1357V22H31.3388V13.2727H32.1101L37.2834 20.5895H37.3516V13.2727H38.1357ZM42.1264 22.1491C41.7315 22.1491 41.3707 22.0724 41.044 21.919C40.7173 21.7628 40.4574 21.5384 40.2642 21.2457C40.071 20.9503 39.9744 20.5923 39.9744 20.1719C39.9744 19.848 40.0355 19.5753 40.1577 19.3537C40.2798 19.1321 40.4531 18.9503 40.6776 18.8082C40.902 18.6662 41.1676 18.554 41.4744 18.4716C41.7813 18.3892 42.1193 18.3253 42.4886 18.2798C42.8551 18.2344 43.1648 18.1946 43.4176 18.1605C43.6733 18.1264 43.8679 18.0724 44.0014 17.9986C44.1349 17.9247 44.2017 17.8054 44.2017 17.6406V17.4872C44.2017 17.0412 44.0682 16.6903 43.8011 16.4347C43.5369 16.1761 43.1563 16.0469 42.6591 16.0469C42.1875 16.0469 41.8026 16.1506 41.5043 16.358C41.2088 16.5653 41.0014 16.8097 40.8821 17.0909L40.1619 16.831C40.3097 16.473 40.5142 16.1875 40.7756 15.9744C41.0369 15.7585 41.3295 15.6037 41.6534 15.5099C41.9773 15.4134 42.3054 15.3651 42.6378 15.3651C42.8878 15.3651 43.1477 15.3977 43.4176 15.4631C43.6903 15.5284 43.9432 15.642 44.1761 15.804C44.4091 15.9631 44.598 16.1861 44.7429 16.473C44.8878 16.7571 44.9602 17.1179 44.9602 17.5554V22H44.2017V20.9645H44.1548C44.0639 21.1577 43.929 21.3452 43.75 21.527C43.571 21.7088 43.3466 21.858 43.0767 21.9744C42.8068 22.0909 42.4901 22.1491 42.1264 22.1491ZM42.2287 21.4545C42.6321 21.4545 42.9815 21.3651 43.277 21.1861C43.5724 21.0071 43.7997 20.7699 43.9588 20.4744C44.1207 20.1761 44.2017 19.848 44.2017 19.4901V18.544C44.1449 18.598 44.0497 18.6463 43.9162 18.6889C43.7855 18.7315 43.6335 18.7699 43.4602 18.804C43.2898 18.8352 43.1193 18.8622 42.9489 18.8849C42.7784 18.9077 42.625 18.9276 42.4886 18.9446C42.1193 18.9901 41.804 19.0611 41.5426 19.1577C41.2813 19.2543 41.081 19.3878 40.9418 19.5582C40.8026 19.7259 40.733 19.9418 40.733 20.206C40.733 20.6037 40.875 20.9119 41.1591 21.1307C41.4432 21.3466 41.7997 21.4545 42.2287 21.4545ZM49.4751 24.5909C49.0291 24.5909 48.6385 24.5327 48.3033 24.4162C47.968 24.3026 47.6854 24.1463 47.4553 23.9474C47.2251 23.7486 47.0462 23.5256 46.9183 23.2784L47.5405 22.8693C47.6342 23.0341 47.7592 23.196 47.9155 23.3551C48.0746 23.5142 48.2805 23.6463 48.5334 23.7514C48.7891 23.8565 49.103 23.9091 49.4751 23.9091C50.0547 23.9091 50.522 23.7642 50.8771 23.4744C51.2351 23.1847 51.4141 22.7344 51.4141 22.1236V20.6491H51.3459C51.2578 20.848 51.1314 21.0469 50.9666 21.2457C50.8018 21.4418 50.5859 21.6051 50.3189 21.7358C50.0547 21.8665 49.7266 21.9318 49.3345 21.9318C48.8118 21.9318 48.3473 21.8026 47.9411 21.544C47.5376 21.2855 47.2195 20.9162 46.9865 20.4361C46.7564 19.9531 46.6413 19.3778 46.6413 18.7102C46.6413 18.0483 46.7536 17.4659 46.978 16.9631C47.2053 16.4602 47.522 16.0682 47.9283 15.7869C48.3345 15.5057 48.8075 15.3651 49.3473 15.3651C49.7479 15.3651 50.0803 15.4361 50.3445 15.5781C50.6087 15.7173 50.8203 15.8906 50.9794 16.098C51.1413 16.3054 51.2678 16.5071 51.3587 16.7031H51.4354V15.4545H52.1768V22.1705C52.1768 22.7244 52.0589 23.1804 51.8232 23.5384C51.5874 23.8963 51.2663 24.1605 50.8601 24.331C50.4538 24.5043 49.9922 24.5909 49.4751 24.5909ZM49.424 21.2372C49.8445 21.2372 50.2038 21.1364 50.5021 20.9347C50.8004 20.7301 51.0291 20.4375 51.1882 20.0568C51.3473 19.6761 51.4268 19.223 51.4268 18.6974C51.4268 18.1861 51.3487 17.733 51.1925 17.3381C51.0362 16.9403 50.8089 16.6278 50.5107 16.4006C50.2152 16.1705 49.853 16.0554 49.424 16.0554C48.9865 16.0554 48.6172 16.1733 48.3161 16.4091C48.0149 16.6449 47.7876 16.9631 47.6342 17.3636C47.4808 17.7614 47.4041 18.206 47.4041 18.6974C47.4041 19.1974 47.4822 19.6392 47.6385 20.0227C47.7947 20.4034 48.0234 20.7017 48.3246 20.9176C48.6257 21.1307 48.9922 21.2372 49.424 21.2372ZM54.185 24.4545V15.4545H54.9222V16.7031H55.0117C55.1026 16.5071 55.2276 16.3068 55.3867 16.1023C55.5458 15.8949 55.756 15.7202 56.0174 15.5781C56.2816 15.4361 56.614 15.3651 57.0146 15.3651C57.5543 15.3651 58.0259 15.5071 58.4293 15.7912C58.8356 16.0724 59.1509 16.4673 59.3754 16.9759C59.6026 17.4815 59.7163 18.071 59.7163 18.7443C59.7163 19.4205 59.6026 20.0128 59.3754 20.5213C59.1509 21.0298 58.8356 21.4261 58.4293 21.7102C58.0259 21.9943 57.5572 22.1364 57.0231 22.1364C56.6282 22.1364 56.2972 22.0653 56.0302 21.9233C55.766 21.7812 55.5515 21.6065 55.3867 21.3991C55.2248 21.1889 55.0998 20.9844 55.0117 20.7855H54.9435V24.4545H54.185ZM54.935 18.7315C54.935 19.2599 55.0131 19.7287 55.1694 20.1378C55.3285 20.544 55.5558 20.8636 55.8512 21.0966C56.1495 21.3267 56.5103 21.4418 56.9336 21.4418C57.3683 21.4418 57.7347 21.3224 58.033 21.0838C58.3342 20.8423 58.5629 20.517 58.7191 20.108C58.8782 19.6989 58.9577 19.2401 58.9577 18.7315C58.9577 18.2287 58.8796 17.7756 58.7234 17.3722C58.57 16.9687 58.3427 16.6491 58.0415 16.4134C57.7404 16.1747 57.3711 16.0554 56.9336 16.0554C56.5075 16.0554 56.1452 16.1705 55.8469 16.4006C55.5487 16.6278 55.3214 16.9432 55.1651 17.3466C55.0117 17.7472 54.935 18.2088 54.935 18.7315ZM65.5394 19.4986V15.4545H66.2979V22H65.5394V20.9134H65.4798C65.3263 21.2486 65.0835 21.5284 64.7511 21.7528C64.4187 21.9744 64.0124 22.0852 63.5323 22.0852C63.1147 22.0852 62.744 21.9943 62.4201 21.8125C62.0962 21.6278 61.842 21.358 61.6573 21.0028C61.4727 20.6477 61.3803 20.2116 61.3803 19.6946V15.4545H62.1388V19.6477C62.1388 20.1591 62.2894 20.571 62.5906 20.8835C62.8917 21.1932 63.2781 21.348 63.7496 21.348C64.0451 21.348 64.3292 21.277 64.6019 21.1349C64.8746 20.9929 65.0991 20.7855 65.2752 20.5128C65.4513 20.2372 65.5394 19.8991 65.5394 19.4986ZM68.3061 22V15.4545H69.0433V16.4602H69.0987C69.2294 16.1307 69.4567 15.8651 69.7805 15.6634C70.1072 15.4588 70.4766 15.3565 70.8885 15.3565C70.951 15.3565 71.0206 15.358 71.0973 15.3608C71.174 15.3636 71.2379 15.3665 71.2891 15.3693V16.1406C71.255 16.1349 71.1953 16.1264 71.1101 16.1151C71.0249 16.1037 70.9325 16.098 70.8331 16.098C70.4922 16.098 70.1882 16.1705 69.9212 16.3153C69.657 16.4574 69.4482 16.6548 69.2947 16.9077C69.1413 17.1605 69.0646 17.4489 69.0646 17.7727V22H68.3061ZM72.7411 13.2727H73.6616L76.8278 20.875H76.9045L80.0707 13.2727H80.9911V22H80.2411V14.956H80.1729L77.2283 22H76.5039L73.5593 14.956H73.4911V22H72.7411V13.2727ZM84.9819 22.1491C84.587 22.1491 84.2262 22.0724 83.8995 21.919C83.5728 21.7628 83.3129 21.5384 83.1197 21.2457C82.9265 20.9503 82.8299 20.5923 82.8299 20.1719C82.8299 19.848 82.891 19.5753 83.0131 19.3537C83.1353 19.1321 83.3086 18.9503 83.533 18.8082C83.7575 18.6662 84.0231 18.554 84.3299 18.4716C84.6367 18.3892 84.9748 18.3253 85.3441 18.2798C85.7106 18.2344 86.0202 18.1946 86.2731 18.1605C86.5288 18.1264 86.7234 18.0724 86.8569 17.9986C86.9904 17.9247 87.0572 17.8054 87.0572 17.6406V17.4872C87.0572 17.0412 86.9237 16.6903 86.6566 16.4347C86.3924 16.1761 86.0117 16.0469 85.5146 16.0469C85.043 16.0469 84.658 16.1506 84.3597 16.358C84.0643 16.5653 83.8569 16.8097 83.7376 17.0909L83.0174 16.831C83.1651 16.473 83.3697 16.1875 83.631 15.9744C83.8924 15.7585 84.185 15.6037 84.5089 15.5099C84.8327 15.4134 85.1609 15.3651 85.4933 15.3651C85.7433 15.3651 86.0032 15.3977 86.2731 15.4631C86.5458 15.5284 86.7987 15.642 87.0316 15.804C87.2646 15.9631 87.4535 16.1861 87.5984 16.473C87.7433 16.7571 87.8157 17.1179 87.8157 17.5554V22H87.0572V20.9645H87.0103C86.9194 21.1577 86.7844 21.3452 86.6055 21.527C86.4265 21.7088 86.2021 21.858 85.9322 21.9744C85.6623 22.0909 85.3455 22.1491 84.9819 22.1491ZM85.0842 21.4545C85.4876 21.4545 85.837 21.3651 86.1325 21.1861C86.4279 21.0071 86.6552 20.7699 86.8143 20.4744C86.9762 20.1761 87.0572 19.848 87.0572 19.4901V18.544C87.0004 18.598 86.9052 18.6463 86.7717 18.6889C86.641 18.7315 86.489 18.7699 86.3157 18.804C86.1452 18.8352 85.9748 18.8622 85.8043 18.8849C85.6339 18.9077 85.4805 18.9276 85.3441 18.9446C84.9748 18.9901 84.6594 19.0611 84.3981 19.1577C84.1367 19.2543 83.9364 19.3878 83.7972 19.5582C83.658 19.7259 83.5884 19.9418 83.5884 20.206C83.5884 20.6037 83.7305 20.9119 84.0146 21.1307C84.2987 21.3466 84.6552 21.4545 85.0842 21.4545ZM89.8335 22V15.4545H90.5707V16.4602H90.6261C90.7567 16.1307 90.984 15.8651 91.3079 15.6634C91.6346 15.4588 92.0039 15.3565 92.4158 15.3565C92.4783 15.3565 92.5479 15.358 92.6246 15.3608C92.7013 15.3636 92.7653 15.3665 92.8164 15.3693V16.1406C92.7823 16.1349 92.7227 16.1264 92.6374 16.1151C92.5522 16.1037 92.4599 16.098 92.3604 16.098C92.0195 16.098 91.7156 16.1705 91.4485 16.3153C91.1843 16.4574 90.9755 16.6548 90.8221 16.9077C90.6687 17.1605 90.592 17.4489 90.592 17.7727V22H89.8335ZM97.0991 15.4545V16.1151H93.9755V15.4545H97.0991ZM94.9513 13.8864H95.7141V20.2912C95.7141 20.5639 95.761 20.7784 95.8548 20.9347C95.9485 21.0881 96.0707 21.1974 96.2212 21.2628C96.3718 21.3253 96.5323 21.3565 96.7028 21.3565C96.8022 21.3565 96.8874 21.3509 96.9585 21.3395C97.0295 21.3253 97.092 21.3111 97.146 21.2969L97.3079 21.983C97.234 22.0114 97.1431 22.0369 97.0352 22.0597C96.9272 22.0852 96.7937 22.098 96.6346 22.098C96.3562 22.098 96.0877 22.0369 95.8292 21.9148C95.5735 21.7926 95.3633 21.6108 95.1985 21.3693C95.0337 21.1278 94.9513 20.8281 94.9513 20.4702V13.8864Z" fill="#4D4D4D"/>
</svg>
