<svg width="32" height="32" viewBox="0 0 32 32" fill="none" xmlns="http://www.w3.org/2000/svg">
<path d="M11.2708 31.2C11.0637 31.2001 10.859 31.1631 10.6712 31.0915C10.4834 31.0199 10.317 30.9154 10.1837 30.7855C10.0504 30.6555 9.9534 30.5032 9.89959 30.3393C9.84578 30.1753 9.83643 30.0037 9.8722 29.8365V29.8295L12.0444 20.0541H3.63468C3.40125 20.0541 3.1726 19.9999 2.97517 19.8978C2.77774 19.7958 2.61961 19.65 2.51905 19.4773C2.41849 19.3047 2.37962 19.1122 2.40693 18.9222C2.43425 18.7323 2.52663 18.5525 2.6734 18.4037L19.6094 1.24536C19.8022 1.04481 20.0698 0.90153 20.3714 0.837423C20.6729 0.773317 20.9918 0.791914 21.2792 0.890373C21.5666 0.988832 21.8068 1.16173 21.9629 1.38263C22.1191 1.60353 22.1827 1.86028 22.144 2.1136C22.144 2.1326 22.1378 2.15097 22.134 2.16996L19.9541 11.948H28.3622C28.5956 11.948 28.8243 12.0022 29.0217 12.1042C29.2191 12.2063 29.3773 12.3521 29.4778 12.5247C29.5784 12.6974 29.6173 12.8898 29.5899 13.0798C29.5626 13.2698 29.4702 13.4496 29.3235 13.5983L12.3851 30.7567C12.252 30.8945 12.0827 31.0059 11.8898 31.0827C11.6969 31.1594 11.4853 31.1995 11.2708 31.2Z" fill="white"/>
</svg>
