<svg width="32" height="32" viewBox="0 0 32 32" fill="none" xmlns="http://www.w3.org/2000/svg">
<path fill-rule="evenodd" clip-rule="evenodd" d="M15.9987 3.99998C13.877 3.99998 11.8421 4.84283 10.3418 6.34313C8.84155 7.84342 7.9987 9.87825 7.9987 12V22.6666H1.33203V12H5.33203C5.33203 9.171 6.45584 6.4579 8.45623 4.45751C10.4566 2.45712 13.1697 1.33331 15.9987 1.33331C18.8277 1.33331 21.5408 2.45712 23.5412 4.45751C25.5416 6.4579 26.6654 9.171 26.6654 12H30.6654V22.6666H26.6654C26.6654 24.4348 25.963 26.1304 24.7127 27.3807C23.4625 28.6309 21.7668 29.3333 19.9987 29.3333V30.6666H11.9987V25.3333H19.9987V26.6666C21.0596 26.6666 22.077 26.2452 22.8271 25.4951C23.5773 24.7449 23.9987 23.7275 23.9987 22.6666V12C23.9987 9.87825 23.1558 7.84342 21.6556 6.34313C20.1553 4.84283 18.1204 3.99998 15.9987 3.99998Z" fill="white"/>
</svg>
