<svg width="32" height="32" viewBox="0 0 32 32" fill="none" xmlns="http://www.w3.org/2000/svg">
<g clip-path="url(#clip0_1062_15619)">
<path fill-rule="evenodd" clip-rule="evenodd" d="M9.02953 5.38891C9.02953 3.33318 10.696 1.66669 12.7518 1.66669H19.6398C21.4807 1.66669 22.9731 3.15907 22.9731 5.00002C22.9731 5.7364 23.5701 6.33335 24.3064 6.33335H25.0922C27.2053 6.33335 29.0639 7.97334 28.9778 10.2208C28.8674 13.1022 28.3077 17.7242 26.0633 21.8144C25.4549 22.9231 24.6424 24.0123 23.7641 25.0271L23.6979 25.1035C22.4344 26.5635 21.3808 27.7808 20.2482 28.6106C19.0299 29.5031 17.7297 29.9477 16.0013 29.9477C14.2729 29.9477 12.9727 29.5031 11.7544 28.6106C10.6218 27.7808 9.56826 26.5635 8.3047 25.1035L8.23857 25.0271C7.36022 24.0123 6.5477 22.9231 5.93931 21.8144C3.7671 17.8558 3.17157 13.6767 3.0362 10.9953C2.92219 8.73699 4.79408 7.11113 6.89549 7.11113H7.30731C8.25847 7.11113 9.02953 6.34007 9.02953 5.38891ZM20.7799 13.9608C21.1264 13.5307 21.0587 12.9012 20.6287 12.5547C20.1986 12.2082 19.5691 12.2759 19.2225 12.7059L16.5272 16.051C15.9738 16.7378 15.6246 17.1674 15.3339 17.4388C15.1974 17.5663 15.1101 17.6231 15.06 17.6481C15.0227 17.6668 15.0093 17.6667 15.0022 17.6667H15.0003C14.9931 17.6667 14.9798 17.6668 14.9424 17.6481C14.8923 17.6231 14.8051 17.5663 14.6685 17.4388C14.3779 17.1674 14.0287 16.7378 13.4752 16.051L12.7799 15.188C12.4334 14.758 11.8038 14.6903 11.3738 15.0368C10.9437 15.3833 10.876 16.0128 11.2225 16.4429L11.9613 17.3597C12.458 17.9762 12.8962 18.5202 13.3034 18.9005C13.7406 19.3088 14.2842 19.6667 15.0012 19.6667C15.7182 19.6667 16.2618 19.3088 16.699 18.9005C17.1062 18.5202 17.5444 17.9763 18.0411 17.3598L20.7799 13.9608Z" fill="white"/>
</g>
<defs>
<clipPath id="clip0_1062_15619">
<rect width="32" height="32" fill="white"/>
</clipPath>
</defs>
</svg>
