<svg width="32" height="32" viewBox="0 0 32 32" fill="none" xmlns="http://www.w3.org/2000/svg">
<path d="M14.7298 9.32457C14.8186 9.27332 14.9088 9.22725 15.0001 9.18625L15.0001 14.56C12.8307 13.602 12.6275 10.5383 14.7298 9.32457Z" fill="#FAFAFA"/>
<path d="M17.0001 22.8138L17.0001 17.44C19.1696 18.3979 19.3728 21.4617 17.2705 22.6754C17.1817 22.7267 17.0915 22.7728 17.0001 22.8138Z" fill="#FAFAFA"/>
<path fill-rule="evenodd" clip-rule="evenodd" d="M15.9397 3H16.0603C18.509 2.99999 20.4285 2.99998 21.9514 3.16497C23.5054 3.33334 24.7646 3.6831 25.8397 4.4642C26.4905 4.93708 27.0629 5.50945 27.5358 6.16031C28.3169 7.23541 28.6667 8.49459 28.835 10.0486C29 11.5715 29 13.4909 29 15.9395V16.0604C29 18.509 29 20.4285 28.835 21.9514C28.6667 23.5054 28.3169 24.7646 27.5358 25.8397C27.0629 26.4905 26.4905 27.0629 25.8397 27.5358C24.7646 28.3169 23.5054 28.6667 21.9514 28.835C20.4285 29 18.5091 29 16.0605 29H15.9396C13.491 29 11.5715 29 10.0486 28.835C8.49459 28.6667 7.23541 28.3169 6.16031 27.5358C5.50945 27.0629 4.93708 26.4905 4.4642 25.8397C3.6831 24.7646 3.33334 23.5054 3.16497 21.9514C2.99998 20.4285 2.99999 18.509 3 16.0603V15.9397C2.99999 13.491 2.99998 11.5715 3.16497 10.0486C3.33334 8.49459 3.6831 7.23541 4.4642 6.16031C4.93708 5.50945 5.50945 4.93708 6.16031 4.4642C7.23541 3.6831 8.49459 3.33334 10.0486 3.16497C11.5715 2.99998 13.491 2.99999 15.9397 3ZM17.0001 6.66667C17.0001 6.11438 16.5524 5.66667 16.0001 5.66667C15.4478 5.66667 15.0001 6.11438 15.0001 6.66667V7.07743C14.5644 7.18673 14.1368 7.3575 13.7298 7.59252C10.1006 9.68781 10.5619 15.0652 14.4949 16.5118L15.0001 16.6977L15.0001 22.9593C14.2869 22.7581 13.6497 22.2893 13.2507 21.5983L12.75 20.731C12.4738 20.2527 11.8622 20.0888 11.384 20.365C10.9057 20.6411 10.7418 21.2527 11.0179 21.731L11.5187 22.5983C12.29 23.9343 13.5903 24.7728 15.0001 25.0046L15.0001 25.3333C15.0001 25.8856 15.4478 26.3333 16.0001 26.3333C16.5524 26.3333 17.0001 25.8856 17.0001 25.3333L17.0001 24.9226C17.4358 24.8133 17.8634 24.6425 18.2705 24.4075C21.8996 22.3122 21.4384 16.9348 17.5054 15.4882L17.0001 15.3023L17.0001 9.0407C17.7133 9.24183 18.3506 9.71063 18.7495 10.4017L19.2503 11.269C19.5264 11.7473 20.138 11.9112 20.6163 11.635C21.0946 11.3589 21.2585 10.7473 20.9824 10.269L20.4816 9.40166C19.7103 8.06571 18.4099 7.22711 17.0001 6.99533V6.66667Z" fill="#FAFAFA"/>
</svg>
