<svg width="56" height="56" viewBox="0 0 56 56" fill="none" xmlns="http://www.w3.org/2000/svg">
<path fill-rule="evenodd" clip-rule="evenodd" d="M34.5264 44.6845C39.5308 38.3028 45.8346 29.0312 45.8346 22.8189C45.8346 12.5176 38.0742 4.16675 28.5013 4.16675C18.9284 4.16675 11.168 12.5176 11.168 22.8189C11.168 29.0312 17.4718 38.3028 22.4763 44.6845C25.0872 48.0139 26.3926 49.6786 28.5013 49.6786C30.61 49.6786 31.9154 48.0139 34.5264 44.6845ZM28.5013 30.1667C24.9115 30.1667 22.0013 27.2566 22.0013 23.6667C22.0013 20.0769 24.9115 17.1667 28.5013 17.1667C32.0912 17.1667 35.0013 20.0769 35.0013 23.6667C35.0013 27.2566 32.0912 30.1667 28.5013 30.1667Z" fill="#0061FF"/>
</svg>
