<svg width="56" height="56" viewBox="0 0 56 56" fill="none" xmlns="http://www.w3.org/2000/svg">
<path fill-rule="evenodd" clip-rule="evenodd" d="M27.9987 6.99992C24.2857 6.99992 20.7247 8.47492 18.0992 11.1004C15.4737 13.7259 13.9987 17.2869 13.9987 20.9999V39.6666H2.33203V20.9999H9.33203C9.33203 16.0492 11.2987 11.3013 14.7994 7.80059C18.3001 4.29991 23.048 2.33325 27.9987 2.33325C32.9494 2.33325 37.6973 4.29991 41.198 7.80059C44.6987 11.3013 46.6654 16.0492 46.6654 20.9999H53.6654V39.6666H46.6654C46.6654 42.7608 45.4362 45.7282 43.2483 47.9162C41.0604 50.1041 38.0929 51.3333 34.9987 51.3333V53.6666H20.9987V44.3333H34.9987V46.6666C36.8552 46.6666 38.6357 45.9291 39.9484 44.6163C41.2612 43.3036 41.9987 41.5231 41.9987 39.6666V20.9999C41.9987 17.2869 40.5237 13.7259 37.8982 11.1004C35.2727 8.47492 31.7117 6.99992 27.9987 6.99992Z" fill="#0061FF"/>
</svg>
