<svg width="56" height="56" viewBox="0 0 56 56" fill="none" xmlns="http://www.w3.org/2000/svg">
<path d="M43.6534 12.0585C42.3247 11.6397 40.8317 11.4364 39.1067 11.3299C37.1349 11.2082 34.7388 11.2082 31.7991 11.2083H25.1636C21.6896 11.2082 18.9662 11.2082 16.7905 11.4151C14.5728 11.626 12.7569 12.0632 11.1561 13.0441C9.47977 14.0714 8.07035 15.4808 7.04309 17.1571C7.0067 17.2165 6.97105 17.2762 6.93614 17.3362C7.10361 14.2094 7.54103 12.1385 8.68354 10.499C9.28144 9.6411 10.0051 8.88662 10.8281 8.2633C13.3761 6.33325 17.011 6.33325 24.2806 6.33325H35.9128C39.5684 6.33325 41.3963 6.33325 42.5319 7.51723C43.4041 8.42655 43.6065 9.76152 43.6534 12.0585Z" fill="#0061FF"/>
<path d="M8.42843 18.0062C6.83203 20.6113 6.83203 24.1575 6.83203 31.2499C6.83203 38.3424 6.83203 41.8886 8.42843 44.4937C9.3217 45.9513 10.5473 47.1769 12.005 48.0702C14.61 49.6666 18.1563 49.6666 25.2487 49.6666H31.7487C38.8411 49.6666 42.3873 49.6666 44.9924 48.0702C46.4501 47.1769 47.6757 45.9513 48.569 44.4937C49.6174 42.7828 49.9773 40.6659 50.1008 37.4053H36.3777C32.2167 37.4053 28.8436 34.0321 28.8436 29.8712C28.8436 25.7102 32.2167 22.3371 36.3777 22.3371H49.9004C49.6832 20.5438 49.288 19.1795 48.569 18.0062C47.6757 16.5485 46.4501 15.3229 44.9924 14.4296C44.5775 14.1754 44.1386 13.9616 43.6654 13.7818C41.1676 12.8333 37.7114 12.8333 31.7487 12.8333H25.2487C18.1563 12.8333 14.61 12.8333 12.005 14.4296C10.5473 15.3229 9.3217 16.5485 8.42843 18.0062Z" fill="#0061FF"/>
<path fill-rule="evenodd" clip-rule="evenodd" d="M50.1175 25.5871H36.3777C34.0116 25.5871 32.0936 27.5051 32.0936 29.8712C32.0936 32.2372 34.0116 34.1553 36.3777 34.1553H50.1603C50.1654 33.2579 50.1654 32.2922 50.1654 31.2499C50.1654 29.0459 50.1654 27.1844 50.1175 25.5871ZM36.3777 28.2462C35.4802 28.2462 34.7527 28.9737 34.7527 29.8712C34.7527 30.7686 35.4802 31.4962 36.3777 31.4962H42.2868C43.1842 31.4962 43.9118 30.7686 43.9118 29.8712C43.9118 28.9737 43.1842 28.2462 42.2868 28.2462H36.3777Z" fill="#0061FF"/>
</svg>
