<svg width="56" height="56" viewBox="0 0 56 56" fill="none" xmlns="http://www.w3.org/2000/svg">
<path d="M51.3346 9.19328L28.0013 1.02661L4.66797 9.19328V27.9999C4.66797 37.6296 10.5806 44.3613 16.092 48.5403C19.4195 51.038 23.0692 53.0747 26.942 54.5953C27.2064 54.6948 27.4724 54.7897 27.74 54.8799L28.0013 54.9733L28.2673 54.8799C28.7775 54.7027 29.2832 54.5129 29.784 54.3106C33.3907 52.8246 36.7936 50.8856 39.9106 48.5403C45.4243 44.3613 51.3346 37.6296 51.3346 27.9999V9.19328ZM25.6703 35.9683L15.7746 26.0679L19.074 22.7663L25.6726 29.3673L38.8723 16.1676L42.174 19.4669L25.6703 35.9683Z" fill="#0061FF"/>
</svg>
