<svg width="56" height="56" viewBox="0 0 56 56" fill="none" xmlns="http://www.w3.org/2000/svg">
<path d="M25.5106 17.2166C25.654 17.1338 25.7997 17.0594 25.9473 16.9932L25.9473 25.6738C22.4428 24.1264 22.1146 19.1773 25.5106 17.2166Z" fill="#0061FF"/>
<path d="M29.178 39.0069L29.1781 30.3262C32.6826 31.8736 33.0109 36.8227 29.6148 38.7834C29.4714 38.8662 29.3256 38.9407 29.178 39.0069Z" fill="#0061FF"/>
<path fill-rule="evenodd" clip-rule="evenodd" d="M27.465 7H27.66C31.6156 6.99998 34.7163 6.99997 37.1762 7.26649C39.6866 7.53848 41.7207 8.10347 43.4574 9.36525C44.5088 10.1291 45.4334 11.0537 46.1973 12.1051C47.459 13.8418 48.024 15.8759 48.296 18.3863C48.5625 20.8462 48.5625 23.9468 48.5625 27.9023V28.0975C48.5625 32.053 48.5625 35.1538 48.296 37.6137C48.024 40.1241 47.459 42.1582 46.1973 43.8949C45.4334 44.9463 44.5088 45.8709 43.4574 46.6348C41.7207 47.8965 39.6866 48.4615 37.1762 48.7335C34.7163 49 31.6157 49 27.6602 49H27.465C23.5095 49 20.4087 49 17.9488 48.7335C15.4384 48.4615 13.4043 47.8965 11.6676 46.6348C10.6162 45.8709 9.69163 44.9463 8.92775 43.8949C7.66597 42.1582 7.10098 40.1241 6.82899 37.6137C6.56247 35.1538 6.56248 32.0531 6.5625 28.0975V27.9025C6.56248 23.9469 6.56247 20.8462 6.82899 18.3863C7.10098 15.8759 7.66597 13.8418 8.92775 12.1051C9.69163 11.0537 10.6162 10.1291 11.6676 9.36525C13.4043 8.10347 15.4384 7.53848 17.9488 7.26649C20.4087 6.99997 23.5094 6.99998 27.465 7ZM29.178 12.9231C29.178 12.0309 28.4548 11.3077 27.5626 11.3077C26.6705 11.3077 25.9472 12.0309 25.9472 12.9231V13.5866C25.2434 13.7632 24.5528 14.039 23.8952 14.4187C18.0327 17.8034 18.7779 26.49 25.1311 28.8268L25.9473 29.127L25.9473 39.2419C24.7952 38.917 23.7658 38.1597 23.1214 37.0435L22.3125 35.6424C21.8664 34.8698 20.8784 34.605 20.1058 35.0511C19.3332 35.4972 19.0685 36.4852 19.5145 37.2578L20.3234 38.6589C21.5694 40.8169 23.6699 42.1715 25.9472 42.546L25.9472 43.0769C25.9472 43.9691 26.6705 44.6923 27.5626 44.6923C28.4548 44.6923 29.178 43.9691 29.178 43.0769L29.178 42.4134C29.8819 42.2369 30.5726 41.961 31.2302 41.5813C37.0927 38.1966 36.3476 29.51 29.9943 27.1732L29.1781 26.873L29.178 16.7581C30.3302 17.083 31.3596 17.8403 32.0041 18.9565L32.813 20.3576C33.2591 21.1302 34.247 21.395 35.0196 20.9489C35.7923 20.5028 36.057 19.5148 35.6109 18.7422L34.802 17.3412C33.556 15.1831 31.4555 13.8284 29.178 13.454V12.9231Z" fill="#0061FF"/>
</svg>
