<svg width="56" height="56" viewBox="0 0 56 56" fill="none" xmlns="http://www.w3.org/2000/svg">
<g clip-path="url(#clip0_1058_13077)">
<path fill-rule="evenodd" clip-rule="evenodd" d="M16.1424 13.4189C16.9193 7.28492 22.1564 2.54175 28.5013 2.54175C34.8544 2.54175 40.0967 7.29707 40.8632 13.4425C43.8188 13.5585 46.0551 13.8876 47.9374 14.9268C49.5485 15.8162 50.9315 17.0452 51.9987 18.5155C51.2074 19.2875 50.3659 20.1192 50.2809 20.2043L42.4101 28.0751C38.7665 31.7187 36.1469 34.3334 33.8875 36.0572C31.6656 37.7525 29.984 38.4325 28.2385 38.4325C26.493 38.4325 24.8114 37.7525 22.5894 36.0572C20.33 34.3334 17.7105 31.7187 14.0669 28.0751L4.79869 18.8069C5.89125 17.2073 7.34883 15.8744 9.06522 14.9268C10.9401 13.8917 13.1838 13.5414 16.1424 13.4189ZM19.4379 13.3641C19.8142 13.3649 20.2019 13.367 20.6005 13.3691C21.162 13.372 21.7451 13.3751 22.3487 13.3751H34.6661C35.7053 13.3751 36.6707 13.3751 37.5676 13.3803C36.8022 9.0671 33.0343 5.79175 28.5013 5.79175C23.974 5.79175 20.2098 9.05891 19.4379 13.3641Z" fill="#0061FF"/>
<path d="M53.5896 21.4917L44.6203 30.4611C41.0837 33.9977 38.3121 36.7693 35.8589 38.6411C33.3479 40.5569 30.9803 41.6825 28.2385 41.6825C25.4967 41.6825 23.1291 40.5569 20.618 38.6411C18.1649 36.7693 15.3933 33.9978 11.8568 30.4612L3.28269 21.8871C2.86681 23.2519 2.75358 24.7418 2.79812 26.4727C2.85106 28.5296 3.13493 31.0844 3.49785 34.3506L3.51388 34.4949C3.81041 37.1637 4.04337 39.2605 4.3639 40.943C4.69091 42.6595 5.12954 44.0687 5.90144 45.3314C7.17557 47.4156 9.03433 49.0793 11.2465 50.1155C12.5867 50.7432 14.0357 51.0236 15.7779 51.159C17.4854 51.2918 19.5948 51.2918 22.2798 51.2917H34.7222C37.4072 51.2918 39.5173 51.2918 41.2247 51.159C42.9669 51.0236 44.4159 50.7432 45.7561 50.1155C47.9683 49.0793 49.8271 47.4156 51.1012 45.3314C51.8731 44.0687 52.3117 42.6595 52.6387 40.943C52.9592 39.2607 53.1922 37.1641 53.4887 34.4957L53.5048 34.3507C53.8676 31.0853 54.1516 28.5293 54.2045 26.4727C54.2534 24.5732 54.1123 22.964 53.5896 21.4917Z" fill="#0061FF"/>
</g>
<defs>
<clipPath id="clip0_1058_13077">
<rect width="52" height="52" fill="white" transform="translate(2.5 2)"/>
</clipPath>
</defs>
</svg>
