<svg width="56" height="56" viewBox="0 0 56 56" fill="none" xmlns="http://www.w3.org/2000/svg">
<path d="M18.7548 5.61855C19.4231 5.35645 20.1372 5.23109 20.8548 5.24989H35.1488C35.8535 5.24989 36.5535 5.33389 37.2488 5.61855C37.9442 5.90322 38.5088 6.34189 39.0268 6.85522L49.1465 16.9749C49.6598 17.4906 50.0985 18.0552 50.3832 18.7529C50.6702 19.4482 50.7518 20.1482 50.7518 20.8529V35.1469C50.7518 35.8772 50.6608 36.5842 50.3715 37.2796C50.084 37.9374 49.6675 38.5309 49.1465 39.0249L39.0268 49.1446C38.5244 49.6733 37.9194 50.0941 37.2488 50.3812C36.5805 50.6433 35.8665 50.7687 35.1488 50.7499H20.8548C20.1245 50.7499 19.4175 50.6589 18.7222 50.3696C18.0643 50.0821 17.4708 49.6655 16.9768 49.1446L6.85717 39.0249C6.3284 38.5224 5.90761 37.9174 5.62051 37.2469C5.3584 36.5786 5.23304 35.8645 5.25184 35.1469V20.8529C5.25184 20.1226 5.34284 19.4156 5.63217 18.7202C5.91966 18.0624 6.33621 17.4689 6.85717 16.9749L16.9768 6.85522C17.4925 6.34189 18.0572 5.90322 18.7548 5.61855ZM23.4052 20.9299C23.245 20.758 23.0518 20.62 22.8371 20.5244C22.6224 20.4287 22.3907 20.3773 22.1557 20.3732C21.9208 20.369 21.6874 20.4123 21.4694 20.5003C21.2515 20.5883 21.0536 20.7193 20.8874 20.8855C20.7212 21.0516 20.5902 21.2496 20.5022 21.4675C20.4142 21.6854 20.371 21.9188 20.3751 22.1538C20.3793 22.3887 20.4307 22.6205 20.5264 22.8351C20.622 23.0498 20.7599 23.243 20.9318 23.4032L21.7555 24.2292C21.9157 24.4012 22.1089 24.5391 22.3236 24.6347C22.5382 24.7304 22.77 24.7818 23.005 24.7859C23.2399 24.7901 23.4733 24.7469 23.6912 24.6588C23.9091 24.5708 24.1071 24.4398 24.2733 24.2736C24.4394 24.1075 24.5704 23.9095 24.6585 23.6916C24.7465 23.4737 24.7897 23.2403 24.7856 23.0053C24.7814 22.7704 24.73 22.5386 24.6343 22.324C24.5387 22.1093 24.4008 21.9161 24.2288 21.7559L23.4052 20.9299ZM31.7818 31.7799C31.4541 32.108 31.27 32.5528 31.27 33.0166C31.27 33.4803 31.4541 33.9251 31.7818 34.2532L32.6055 35.0792C32.9372 35.3883 33.376 35.5566 33.8294 35.5486C34.2828 35.5406 34.7153 35.357 35.036 35.0363C35.3566 34.7157 35.5402 34.2831 35.5482 33.8298C35.5562 33.3764 35.388 32.9376 35.0788 32.6059L34.2552 31.7799C33.927 31.4522 33.4823 31.2681 33.0185 31.2681C32.5548 31.2681 32.11 31.4522 31.7818 31.7799ZM35.0718 23.4032C35.2438 23.243 35.3817 23.0498 35.4773 22.8351C35.573 22.6205 35.6244 22.3887 35.6286 22.1538C35.6327 21.9188 35.5895 21.6854 35.5015 21.4675C35.4134 21.2496 35.2824 21.0516 35.1163 20.8855C34.9501 20.7193 34.7521 20.5883 34.5342 20.5003C34.3163 20.4123 34.0829 20.369 33.848 20.3732C33.613 20.3773 33.3812 20.4287 33.1666 20.5244C32.9519 20.62 32.7587 20.758 32.5985 20.9299L20.9318 32.5966C20.7599 32.7568 20.622 32.95 20.5264 33.1646C20.4307 33.3793 20.3793 33.611 20.3751 33.846C20.371 34.081 20.4142 34.3144 20.5022 34.5323C20.5902 34.7502 20.7212 34.9481 20.8874 35.1143C21.0536 35.2805 21.2515 35.4115 21.4694 35.4995C21.6874 35.5875 21.9208 35.6307 22.1557 35.6266C22.3907 35.6225 22.6224 35.571 22.8371 35.4754C23.0518 35.3797 23.245 35.2418 23.4052 35.0699L35.0718 23.4032Z" fill="#0061FF"/>
</svg>
