<svg width="56" height="56" viewBox="0 0 56 56" fill="none" xmlns="http://www.w3.org/2000/svg">
<path fill-rule="evenodd" clip-rule="evenodd" d="M30.8738 3.17331C32.3485 1.40464 35.2208 2.61331 34.9875 4.90464L33.3401 21H46.6658C47.1092 21.0001 47.5433 21.1266 47.9174 21.3646C48.2915 21.6026 48.59 21.9422 48.778 22.3438C48.9661 22.7453 49.0358 23.1921 48.9791 23.6318C48.9224 24.0715 48.7416 24.486 48.4578 24.8266L25.1245 52.8266C23.6498 54.5953 20.7775 53.3866 21.0108 51.0953L22.6581 35H9.33246C8.88909 34.9998 8.45495 34.8733 8.08087 34.6353C7.70679 34.3974 7.40826 34.0577 7.22023 33.6562C7.0322 33.2547 6.96246 32.8079 7.01917 32.3682C7.07588 31.9284 7.25671 31.514 7.54046 31.1733L30.8738 3.17331Z" fill="#0061FF"/>
</svg>
