<svg width="64" height="64" viewBox="0 0 64 64" fill="none" xmlns="http://www.w3.org/2000/svg">
<path d="M38.2475 37.3517L41.0855 37.6496V60.75L33.2465 52.3794V39.0624L35.5232 40.1743L38.2475 37.3517ZM25.7537 37.3517L22.9142 37.6496V60.75L30.7531 52.3794V39.0624L28.4765 40.1743L25.7537 37.3517ZM47.2512 22.8792L48.1696 26.076L45.4127 27.9347L45.1818 31.2561L41.9556 32.0592L40.6052 35.0985L37.2977 34.7491L34.9883 37.135L32.0006 35.6754L29.0128 37.135L26.7035 34.7412L23.396 35.0906L22.0456 32.0515L18.8193 31.2561L18.5885 27.9394L15.8237 26.0744L16.7422 22.8778L14.793 20.1847L16.7485 17.4947L15.8237 14.3044L18.5822 12.4456L18.8131 9.12875L22.0456 8.3335L23.396 5.29437L26.7035 5.64362L29.0128 3.25L32.0006 4.70962L34.9883 3.25L37.2977 5.64362L40.6052 5.29437L41.9556 8.3335L45.1818 9.13663L45.4127 12.4534L48.1696 14.3121L47.2512 17.5089L49.2082 20.1847L47.2512 22.8792ZM41.0995 20.1847C41.0995 18.3987 40.5699 16.6528 39.5776 15.1678C38.5853 13.6828 37.175 12.5254 35.5249 11.8419C33.8749 11.1584 32.0592 10.9796 30.3075 11.328C28.5558 11.6764 26.9468 12.5365 25.6839 13.7994C24.421 15.0623 23.5609 16.6713 23.2125 18.423C22.864 20.1747 23.0429 21.9904 23.7264 23.6405C24.4098 25.2905 25.5673 26.7009 27.0523 27.6931C28.5373 28.6854 30.2832 29.215 32.0692 29.215C34.463 29.2113 36.7578 28.2587 38.4504 26.566C40.1431 24.8733 41.0957 22.5786 41.0995 20.1847ZM32.0692 13.6494C30.7767 13.6494 29.5132 14.0327 28.4384 14.7508C27.3637 15.4689 26.5261 16.4895 26.0314 17.6837C25.5368 18.8778 25.4074 20.1918 25.6595 21.4595C25.9117 22.7273 26.5341 23.8917 27.4481 24.8057C28.362 25.7197 29.5265 26.3421 30.7942 26.5943C32.0619 26.8465 33.3759 26.7171 34.5701 26.2224C35.7642 25.7278 36.7849 24.8902 37.503 23.8155C38.2211 22.7408 38.6044 21.4773 38.6045 20.1847C38.5995 18.4534 37.9092 16.7945 36.6846 15.5707C35.4599 14.3469 33.8005 13.6579 32.0692 13.6541V13.6494Z" fill="#0061FF"/>
</svg>
