<svg width="64" height="64" viewBox="0 0 64 64" fill="none" xmlns="http://www.w3.org/2000/svg">
<path d="M32.0013 45.3334C33.4158 45.3334 34.7723 44.7715 35.7725 43.7713C36.7727 42.7711 37.3346 41.4146 37.3346 40.0001C37.3346 38.5856 36.7727 37.229 35.7725 36.2288C34.7723 35.2287 33.4158 34.6667 32.0013 34.6667C30.5868 34.6667 29.2303 35.2287 28.2301 36.2288C27.2299 37.229 26.668 38.5856 26.668 40.0001C26.668 41.4146 27.2299 42.7711 28.2301 43.7713C29.2303 44.7715 30.5868 45.3334 32.0013 45.3334ZM48.0013 21.3334C49.4158 21.3334 50.7723 21.8953 51.7725 22.8955C52.7727 23.8957 53.3346 25.2523 53.3346 26.6667V53.3334C53.3346 54.7479 52.7727 56.1045 51.7725 57.1047C50.7723 58.1048 49.4158 58.6667 48.0013 58.6667H16.0013C14.5868 58.6667 13.2303 58.1048 12.2301 57.1047C11.2299 56.1045 10.668 54.7479 10.668 53.3334V26.6667C10.668 25.2523 11.2299 23.8957 12.2301 22.8955C13.2303 21.8953 14.5868 21.3334 16.0013 21.3334H18.668V16.0001C18.668 12.4639 20.0727 9.07248 22.5732 6.57199C25.0737 4.07151 28.4651 2.66675 32.0013 2.66675C33.7523 2.66675 35.4861 3.01162 37.1037 3.68169C38.7214 4.35175 40.1913 5.33388 41.4294 6.57199C42.6675 7.81011 43.6496 9.27996 44.3197 10.8976C44.9898 12.5153 45.3346 14.2491 45.3346 16.0001V21.3334H48.0013ZM32.0013 8.00008C29.8796 8.00008 27.8447 8.84294 26.3444 10.3432C24.8442 11.8435 24.0013 13.8784 24.0013 16.0001V21.3334H40.0013V16.0001C40.0013 13.8784 39.1584 11.8435 37.6582 10.3432C36.1579 8.84294 34.123 8.00008 32.0013 8.00008Z" fill="#0061FF"/>
</svg>
