<svg width="64" height="64" viewBox="0 0 64 64" fill="none" xmlns="http://www.w3.org/2000/svg">
<path fill-rule="evenodd" clip-rule="evenodd" d="M48.828 8H15.172L4 19.172V56H60V19.172L48.828 8ZM10.828 18L16.828 12H47.172L53.172 18H10.828ZM26.828 32L29.416 29.416L26.588 26.584L17.172 36H40C40.5304 36 41.0391 36.2107 41.4142 36.5858C41.7893 36.9609 42 37.4696 42 38C42 38.5304 41.7893 39.0391 41.4142 39.4142C41.0391 39.7893 40.5304 40 40 40H24V44H40C41.5913 44 43.1174 43.3679 44.2426 42.2426C45.3679 41.1174 46 39.5913 46 38C46 36.4087 45.3679 34.8826 44.2426 33.7574C43.1174 32.6321 41.5913 32 40 32H26.828Z" fill="#0061FF"/>
</svg>
