<svg width="64" height="64" viewBox="0 0 64 64" fill="none" xmlns="http://www.w3.org/2000/svg">
<path d="M61.3346 26.6667C61.3346 25.2523 60.7727 23.8957 59.7725 22.8955C58.7723 21.8953 57.4158 21.3334 56.0013 21.3334H39.148L41.708 9.14675C41.7613 8.88008 41.788 8.58675 41.788 8.29341C41.788 7.20008 41.3346 6.18675 40.6146 5.46675L37.788 2.66675L20.2413 20.2134C19.2546 21.2001 18.668 22.5334 18.668 24.0001V50.6667C18.668 52.0812 19.2299 53.4378 20.2301 54.438C21.2303 55.4382 22.5868 56.0001 24.0013 56.0001H48.0013C50.2146 56.0001 52.108 54.6668 52.908 52.7467L60.9613 33.9467C61.2013 33.3334 61.3346 32.6934 61.3346 32.0001V26.6667ZM2.66797 56.0001H13.3346V24.0001H2.66797V56.0001Z" fill="#0061FF"/>
</svg>
