<svg width="64" height="64" viewBox="0 0 64 64" fill="none" xmlns="http://www.w3.org/2000/svg">
<g clip-path="url(#clip0_1058_13151)">
<path d="M31.8318 10.0527C26.3202 10.0527 21.8521 15.2693 21.8521 21.7042C21.8521 26.167 24.0012 30.043 27.1571 32L23.4975 33.6961L13.7589 38.2128C12.8181 38.6832 12.3485 39.4809 12.3485 40.61V51.3354C12.4259 52.6764 13.2305 53.9262 14.535 53.9473H49.1814C50.6707 53.8179 51.4241 52.6183 51.4387 51.3354V40.61C51.4387 39.4809 50.9692 38.6832 50.0284 38.2128L40.6424 33.6961L36.7417 31.8481C39.7681 29.847 41.8116 26.0548 41.8116 21.7043C41.8116 15.2693 37.3435 10.0527 31.8318 10.0527ZM15.7346 14.15C13.3627 14.2401 11.4829 15.2664 10.0547 16.9018C8.47499 18.8708 7.70485 21.2085 7.68997 23.534C7.78699 26.9728 9.32565 30.2283 12.0649 31.9311L1.12869 37.0132C0.376 37.2955 0 37.954 0 38.9889V47.5968C0.0587733 48.7384 0.65152 49.6979 1.76293 49.7143H9.03141V40.61C9.15168 38.1759 10.2947 36.2084 12.3485 35.2483L19.615 31.7914C20.1795 31.4621 20.7207 31.0144 21.2381 30.45C18.2421 25.8272 17.826 20.2904 19.7569 15.4206C18.5011 14.652 17.0897 14.1581 15.7346 14.15ZM48.1925 14.15C46.6414 14.1825 45.2079 14.7537 44.0304 15.5604C45.9086 20.4743 45.3906 26.0145 42.618 30.3081C43.2296 31.0137 43.8662 31.5549 44.5249 31.9312L51.5097 35.2483C53.6375 36.4153 54.7347 38.4002 54.7558 40.61V49.7144H62.235C63.4651 49.6082 63.9893 48.6271 64 47.5968V38.9889C64 38.0481 63.624 37.3896 62.8713 37.0132L52.075 31.8603C54.8749 29.7958 56.2808 26.7019 56.308 23.534C56.2336 21.0267 55.4676 18.6986 53.9433 16.9018C52.3504 15.1739 50.3747 14.1683 48.1925 14.15Z" fill="#0061FF"/>
</g>
<defs>
<clipPath id="clip0_1058_13151">
<rect width="64" height="64" fill="white"/>
</clipPath>
</defs>
</svg>
