<svg width="57" height="57" viewBox="0 0 57 57" fill="none" xmlns="http://www.w3.org/2000/svg">
<circle cx="28" cy="28.3242" r="28" fill="#0061FF"/>
<circle cx="28.2188" cy="28" r="28" fill="#0061FF"/>
<path d="M34.8417 25.6497C35.3225 25.1022 35.2285 24.3009 34.6319 23.8598C34.0353 23.4187 33.1619 23.5049 32.6812 24.0523L28.9419 28.3103C28.1741 29.1846 27.6897 29.7314 27.2865 30.0769C27.097 30.2393 26.976 30.3115 26.9064 30.3434C26.8547 30.3672 26.8362 30.3671 26.8262 30.3671H26.8236C26.8136 30.3671 26.7951 30.3672 26.7433 30.3434C26.6738 30.3115 26.5528 30.2393 26.3633 30.0769C25.9601 29.7314 25.4757 29.1846 24.7079 28.3103L23.7432 27.2119C23.2625 26.6644 22.3891 26.5782 21.7925 27.0193C21.1959 27.4604 21.102 28.2618 21.5827 28.8092L22.6076 29.9763C23.2966 30.7611 23.9046 31.4535 24.4695 31.9376C25.0761 32.4573 25.8302 32.9129 26.8249 32.9129C27.8196 32.9129 28.5737 32.4573 29.1803 31.9376C29.7452 31.4535 30.3532 30.7611 31.0422 29.9763L34.8417 25.6497Z" fill="#FAFAFA"/>
<path fill-rule="evenodd" clip-rule="evenodd" d="M23.7041 10C20.8522 10 18.5402 12.1213 18.5402 14.7382C18.5402 15.9489 17.4705 16.9305 16.151 16.9305H15.5797C12.6643 16.9305 10.0675 19.0001 10.2256 21.8748C10.4134 25.288 11.2396 30.6077 14.2531 35.6469C15.0972 37.0582 16.2244 38.4446 17.4429 39.7364L17.5347 39.8337C19.2876 41.6922 20.7492 43.2418 22.3205 44.298C24.0106 45.4341 25.8145 46 28.2123 46C30.6101 46 32.414 45.4341 34.1041 44.298C35.6754 43.2418 37.137 41.6922 38.8899 39.8337L38.9817 39.7364C40.2002 38.4446 41.3274 37.0582 42.1715 35.6469C45.2852 30.4402 46.0616 24.5568 46.2148 20.8889C46.3342 18.028 43.7558 15.9404 40.8243 15.9404H39.7341C38.7125 15.9404 37.8844 15.1805 37.8844 14.2431C37.8844 11.8997 35.814 10 33.26 10H23.7041ZM21.3149 14.7382C21.3149 13.5274 22.3846 12.5459 23.7041 12.5459H33.26C34.2816 12.5459 35.1097 13.3058 35.1097 14.2431C35.1097 16.5866 37.1801 18.4863 39.7341 18.4863H40.8243C42.3737 18.4863 43.4942 19.5438 43.4422 20.7915C43.2958 24.2959 42.5511 29.7198 39.739 34.4221C39.0195 35.6252 38.0233 36.8622 36.8837 38.0703C35.0153 40.0511 33.7536 41.3776 32.4643 42.2443C31.2665 43.0494 30.0413 43.4541 28.2123 43.4541C26.3833 43.4541 25.1581 43.0494 23.9603 42.2443C22.671 41.3776 21.4093 40.0511 19.5409 38.0703C18.4013 36.8622 17.4051 35.6252 16.6856 34.4221C13.9508 29.849 13.1733 24.9555 12.9967 21.7464C12.9295 20.5255 14.0256 19.4763 15.5797 19.4763H16.151C19.0029 19.4763 21.3149 17.355 21.3149 14.7382Z" fill="#FAFAFA"/>
</svg>
