<svg width="57" height="57" viewBox="0 0 57 57" fill="none" xmlns="http://www.w3.org/2000/svg">
<circle cx="28" cy="28.3242" r="28" fill="#0061FF"/>
<circle cx="28.2188" cy="28" r="28" fill="#0061FF"/>
<path d="M36 26.531C36 26.0124 36 25.7532 36.078 25.5222C36.3048 24.8509 36.9027 24.5904 37.5017 24.3175C38.175 24.0109 38.5116 23.8575 38.8452 23.8305C39.2239 23.7999 39.6033 23.8815 39.927 24.0632C40.3562 24.304 40.6554 24.7616 40.9618 25.1337C42.3769 26.8524 43.0844 27.7119 43.3433 28.6596C43.5522 29.4243 43.5522 30.2241 43.3433 30.9888C42.9657 32.3711 41.7727 33.5298 40.8897 34.6023C40.438 35.1509 40.2122 35.4252 39.927 35.5853C39.6033 35.7669 39.2239 35.8485 38.8452 35.8179C38.5116 35.7909 38.175 35.6376 37.5017 35.3309C36.9027 35.058 36.3048 34.7976 36.078 34.1262C36 33.8952 36 33.636 36 33.1175V26.531Z" stroke="white" stroke-width="1.5"/>
<path d="M21 26.5311C21 25.8783 20.9817 25.2915 20.4539 24.8325C20.2619 24.6656 20.0074 24.5496 19.4984 24.3178C18.825 24.0111 18.4883 23.8577 18.1547 23.8308C17.1539 23.7498 16.6154 24.4329 16.0382 25.134C14.6231 26.8527 13.9156 27.7121 13.6567 28.6598C13.4478 29.4246 13.4478 30.2244 13.6567 30.9891C14.0343 32.3714 15.2273 33.53 16.1103 34.6026C16.6669 35.2787 17.1987 35.8955 18.1547 35.8182C18.4883 35.7912 18.825 35.6378 19.4984 35.3312C20.0074 35.0993 20.2619 34.9833 20.4539 34.8164C20.9817 34.3574 21 33.7707 21 33.1178V26.5311Z" stroke="white" stroke-width="1.5"/>
<path d="M18 23.8242C18 18.8537 22.701 14.8242 28.5 14.8242C34.299 14.8242 39 18.8537 39 23.8242" stroke="white" stroke-width="1.5" stroke-linecap="square" stroke-linejoin="round"/>
<path d="M39 35.8242V37.0242C39 39.6752 36.3137 41.8242 33 41.8242H30" stroke="white" stroke-width="1.5" stroke-linecap="round" stroke-linejoin="round"/>
</svg>
