<svg width="57" height="57" viewBox="0 0 57 57" fill="none" xmlns="http://www.w3.org/2000/svg">
<circle cx="28" cy="28.3242" r="28" fill="#0061FF"/>
<circle cx="28.2188" cy="28" r="28" fill="#0061FF"/>
<path d="M31.5 14.8242H18C16.3431 14.8242 15 16.1674 15 17.8242C15 19.4811 16.3431 20.8242 18 20.8242H37.5C37.5 19.4293 37.5 18.7318 37.3467 18.1595C36.9306 16.6066 35.7175 15.3936 34.1647 14.9775C33.5925 14.8242 32.895 14.8242 31.5 14.8242Z" stroke="white" stroke-width="1.5" stroke-linecap="round" stroke-linejoin="round"/>
<path d="M28.5 41.8242H33C37.2426 41.8242 39.3639 41.8242 40.6819 40.5062C42 39.1881 42 37.0668 42 32.8242V29.8242C42 25.5816 42 23.4603 40.6819 22.1422C39.3639 20.8242 37.2426 20.8242 33 20.8242H21M15 28.3242V17.8242" stroke="white" stroke-width="1.5" stroke-linecap="round" stroke-linejoin="round"/>
<path d="M42 28.3242H39C38.3025 28.3242 37.9537 28.3242 37.6677 28.4009C36.8911 28.6089 36.2847 29.2154 36.0766 29.9919C36 30.278 36 30.6267 36 31.3242C36 32.0217 36 32.3705 36.0766 32.6565C36.2847 33.4331 36.8911 34.0395 37.6677 34.2476C37.9537 34.3242 38.3025 34.3242 39 34.3242H42" stroke="white" stroke-width="1.5" stroke-linecap="round" stroke-linejoin="round"/>
<path d="M25.5 36.5742H20.25M20.25 36.5742H15M20.25 36.5742V31.3242M20.25 36.5742V41.8242" stroke="white" stroke-width="1.5" stroke-linecap="round" stroke-linejoin="round"/>
</svg>
