<svg width="40" height="40" viewBox="0 0 40 40" fill="none" xmlns="http://www.w3.org/2000/svg">
<rect width="40" height="40" rx="4" fill="#D9E7FF"/>
<g clip-path="url(#clip0_1058_13381)">
<path fill-rule="evenodd" clip-rule="evenodd" d="M19.9777 10.5714C19.2611 10.5584 18.5489 10.6869 17.882 10.9495C17.2151 11.2121 16.6065 11.6037 16.0911 12.1017C15.5757 12.5998 15.1635 13.1946 14.8783 13.8521C14.593 14.5097 14.4402 15.217 14.4286 15.9336V23.4285C14.4286 23.8832 14.248 24.3192 13.9265 24.6407C13.605 24.9622 13.1689 25.1428 12.7143 25.1428H10.5714C9.88944 25.1428 9.23539 24.8719 8.75315 24.3896C8.27092 23.9074 8 23.2533 8 22.5714V19.1428C8 18.4608 8.27092 17.8068 8.75315 17.3245C9.23539 16.8423 9.88944 16.5714 10.5714 16.5714H11.8571V15.9028C11.8728 14.8492 12.0958 13.809 12.5135 12.8416C12.9312 11.8742 13.5354 10.9985 14.2916 10.2647C15.0477 9.53078 15.9411 8.95306 16.9205 8.56447C17.9 8.17589 18.9464 7.98406 20 7.99993C21.0536 7.98406 22.1 8.17589 23.0795 8.56447C24.0589 8.95306 24.9523 9.53078 25.7084 10.2647C26.4646 10.9985 27.0688 11.8742 27.4865 12.8416C27.9042 13.809 28.1272 14.8492 28.1429 15.9028V16.5714H29.4286C30.1106 16.5714 30.7646 16.8423 31.2468 17.3245C31.7291 17.8068 32 18.4608 32 19.1428V22.5714C32 23.2533 31.7291 23.9074 31.2468 24.3896C30.7646 24.8719 30.1106 25.1428 29.4286 25.1428H28.1429V25.9999C28.1431 27.1584 27.7168 28.2763 26.9452 29.1405C26.1737 30.0047 25.1111 30.5545 23.96 30.6851C23.7365 31.0842 23.4105 31.4164 23.0158 31.6476C22.621 31.8787 22.1717 32.0003 21.7143 31.9999H19.1429C18.4609 31.9999 17.8068 31.729 17.3246 31.2468C16.8423 30.7645 16.5714 30.1105 16.5714 29.4285C16.5714 28.7465 16.8423 28.0925 17.3246 27.6102C17.8068 27.128 18.4609 26.8571 19.1429 26.8571H21.7143C22.6434 26.8571 23.4577 27.3491 23.9086 28.0879C24.3811 27.9793 24.8028 27.7137 25.1048 27.3345C25.4068 26.9552 25.5713 26.4848 25.5714 25.9999V15.9319C25.5597 15.2116 25.4052 14.5007 25.1171 13.8404C24.8289 13.1801 24.4127 12.5835 23.8926 12.085C23.3724 11.5866 22.7586 11.1961 22.0867 10.9363C21.4147 10.6765 20.6979 10.5525 19.9777 10.5714Z" fill="#0061FF"/>
</g>
<defs>
<clipPath id="clip0_1058_13381">
<rect width="24" height="24" fill="white" transform="translate(8 8)"/>
</clipPath>
</defs>
</svg>
