<svg width="40" height="40" viewBox="0 0 40 40" fill="none" xmlns="http://www.w3.org/2000/svg">
<rect width="40" height="40" rx="4" fill="#D9E7FF"/>
<path fill-rule="evenodd" clip-rule="evenodd" d="M20 9.5C17.812 9.5 15.7135 10.3692 14.1664 11.9164C12.6192 13.4635 11.75 15.562 11.75 17.75V19.25C11.75 20.042 12.0725 20.8025 12.4145 21.389C12.761 21.9875 13.178 22.4885 13.469 22.781L15.5945 24.905L16.46 27.5H23.54L24.4055 24.905L26.531 22.781C26.822 22.4885 27.239 21.986 27.5855 21.389C27.9275 20.8025 28.25 20.042 28.25 19.25V17.75C28.25 15.562 27.3808 13.4635 25.8336 11.9164C24.2865 10.3692 22.188 9.5 20 9.5ZM22.031 16.031L20.969 14.969L18.1895 17.75L19.6895 19.25L17.969 20.969L19.031 22.031L21.8105 19.25L20.3105 17.75L22.031 16.031Z" fill="#0061FF"/>
<path d="M23 30.5V29H17V30.5H23Z" fill="#0061FF"/>
</svg>
