<svg width="40" height="40" viewBox="0 0 40 40" fill="none" xmlns="http://www.w3.org/2000/svg">
<rect width="40" height="40" rx="4" fill="#D9E7FF"/>
<g clip-path="url(#clip0_1058_13448)">
<path d="M25.25 8H14.75C13.5125 8 12.5 9.0125 12.5 10.25V29.75C12.5 30.9875 13.5125 32 14.75 32H25.25C26.4875 32 27.5 30.9875 27.5 29.75V10.25C27.5 9.0125 26.4875 8 25.25 8ZM17 9.125H23V9.875H17V9.125ZM20 30.5C19.6022 30.5 19.2206 30.342 18.9393 30.0607C18.658 29.7794 18.5 29.3978 18.5 29C18.5 28.6022 18.658 28.2206 18.9393 27.9393C19.2206 27.658 19.6022 27.5 20 27.5C20.3978 27.5 20.7794 27.658 21.0607 27.9393C21.342 28.2206 21.5 28.6022 21.5 29C21.5 29.3978 21.342 29.7794 21.0607 30.0607C20.7794 30.342 20.3978 30.5 20 30.5ZM26 26H14V11H26V26Z" fill="#0061FF"/>
</g>
<defs>
<clipPath id="clip0_1058_13448">
<rect width="24" height="24" fill="white" transform="translate(8 8)"/>
</clipPath>
</defs>
</svg>
