<svg width="40" height="40" viewBox="0 0 40 40" fill="none" xmlns="http://www.w3.org/2000/svg">
<rect width="40" height="40" rx="4" fill="#D9E7FF"/>
<path d="M14 14.75C13.4067 14.75 12.8266 14.5741 12.3333 14.2444C11.8399 13.9148 11.4554 13.4462 11.2284 12.8981C11.0013 12.3499 10.9419 11.7467 11.0576 11.1647C11.1734 10.5828 11.4591 10.0482 11.8787 9.62868C12.2982 9.20912 12.8328 8.9234 13.4147 8.80765C13.9967 8.69189 14.5999 8.7513 15.1481 8.97836C15.6962 9.20543 16.1648 9.58994 16.4944 10.0833C16.8241 10.5766 17 11.1567 17 11.75C17 12.5457 16.6839 13.3087 16.1213 13.8713C15.5587 14.4339 14.7956 14.75 14 14.75ZM14 10.25C13.7033 10.25 13.4133 10.338 13.1666 10.5028C12.92 10.6676 12.7277 10.9019 12.6142 11.176C12.5006 11.4501 12.4709 11.7517 12.5288 12.0426C12.5867 12.3336 12.7296 12.6009 12.9393 12.8107C13.1491 13.0204 13.4164 13.1633 13.7074 13.2212C13.9983 13.2791 14.2999 13.2494 14.574 13.1358C14.8481 13.0223 15.0824 12.83 15.2472 12.5834C15.412 12.3367 15.5 12.0467 15.5 11.75C15.5 11.3522 15.342 10.9706 15.0607 10.6893C14.7794 10.408 14.3978 10.25 14 10.25ZM26 14.75C25.4067 14.75 24.8266 14.5741 24.3333 14.2444C23.8399 13.9148 23.4554 13.4462 23.2284 12.8981C23.0013 12.3499 22.9419 11.7467 23.0576 11.1647C23.1734 10.5828 23.4591 10.0482 23.8787 9.62868C24.2982 9.20912 24.8328 8.9234 25.4147 8.80765C25.9967 8.69189 26.5999 8.7513 27.1481 8.97836C27.6962 9.20543 28.1648 9.58994 28.4944 10.0833C28.8241 10.5766 29 11.1567 29 11.75C29 12.5457 28.6839 13.3087 28.1213 13.8713C27.5587 14.4339 26.7956 14.75 26 14.75ZM26 10.25C25.7033 10.25 25.4133 10.338 25.1666 10.5028C24.92 10.6676 24.7277 10.9019 24.6142 11.176C24.5006 11.4501 24.4709 11.7517 24.5288 12.0426C24.5867 12.3336 24.7296 12.6009 24.9393 12.8107C25.1491 13.0204 25.4164 13.1633 25.7074 13.2212C25.9983 13.2791 26.2999 13.2494 26.574 13.1358C26.8481 13.0223 27.0824 12.83 27.2472 12.5834C27.412 12.3367 27.5 12.0467 27.5 11.75C27.5 11.3522 27.342 10.9706 27.0607 10.6893C26.7794 10.408 26.3978 10.25 26 10.25ZM27.5 30.5H24.5C24.1022 30.5 23.7206 30.342 23.4393 30.0607C23.158 29.7794 23 29.3978 23 29V23.75H24.5V29H27.5V22.25H29V17.75C29 17.5511 28.921 17.3603 28.7803 17.2197C28.6397 17.079 28.4489 17 28.25 17H23.435L20 23L16.565 17H11.75C11.5511 17 11.3603 17.079 11.2197 17.2197C11.079 17.3603 11 17.5511 11 17.75V22.25H12.5V29H15.5V23.75H17V29C17 29.3978 16.842 29.7794 16.5607 30.0607C16.2794 30.342 15.8978 30.5 15.5 30.5H12.5C12.1022 30.5 11.7206 30.342 11.4393 30.0607C11.158 29.7794 11 29.3978 11 29V23.75C10.6022 23.75 10.2206 23.592 9.93934 23.3107C9.65804 23.0294 9.5 22.6478 9.5 22.25V17.75C9.5 17.1533 9.73705 16.581 10.159 16.159C10.581 15.7371 11.1533 15.5 11.75 15.5H17.435L20 20L22.565 15.5H28.25C28.8467 15.5 29.419 15.7371 29.841 16.159C30.2629 16.581 30.5 17.1533 30.5 17.75V22.25C30.5 22.6478 30.342 23.0294 30.0607 23.3107C29.7794 23.592 29.3978 23.75 29 23.75V29C29 29.3978 28.842 29.7794 28.5607 30.0607C28.2794 30.342 27.8978 30.5 27.5 30.5Z" fill="#0061FF"/>
</svg>
