<svg width="64" height="64" viewBox="0 0 64 64" fill="none" xmlns="http://www.w3.org/2000/svg">
<rect width="64" height="64" rx="32" fill="#D9E7FF"/>
<path d="M21.9462 15.0596C22.4853 14.6284 22.5727 13.8418 22.1415 13.3027C21.7102 12.7636 20.9236 12.6762 20.3845 13.1075L16.2178 16.4408C15.6788 16.8721 15.5913 17.6587 16.0226 18.1977C16.4539 18.7368 17.2405 18.8242 17.7796 18.393L21.9462 15.0596Z" fill="#0061FF"/>
<path d="M43.6129 13.1075C43.0738 12.6762 42.2872 12.7636 41.8559 13.3027C41.4247 13.8418 41.5121 14.6284 42.0512 15.0596L46.2178 18.393C46.7569 18.8242 47.5435 18.7368 47.9748 18.1977C48.406 17.6587 48.3186 16.8721 47.7796 16.4408L43.6129 13.1075Z" fill="#0061FF"/>
<path fill-rule="evenodd" clip-rule="evenodd" d="M31.9987 14.0835C22.1036 14.0835 14.082 22.1051 14.082 32.0002C14.082 41.8953 22.1036 49.9169 31.9987 49.9169C41.8938 49.9169 49.9154 41.8953 49.9154 32.0002C49.9154 22.1051 41.8938 14.0835 31.9987 14.0835ZM33.2487 25.3335C33.2487 24.6432 32.6891 24.0835 31.9987 24.0835C31.3083 24.0835 30.7487 24.6432 30.7487 25.3335L30.7487 31.1669C30.7487 33.238 32.4276 34.9169 34.4987 34.9169H36.9987C37.6891 34.9169 38.2487 34.3572 38.2487 33.6669C38.2487 32.9765 37.6891 32.4169 36.9987 32.4169H34.4987C33.8083 32.4169 33.2487 31.8572 33.2487 31.1669L33.2487 25.3335Z" fill="#0061FF"/>
</svg>
