<svg width="64" height="64" viewBox="0 0 64 64" fill="none" xmlns="http://www.w3.org/2000/svg">
<rect width="64" height="64" rx="32" fill="#D9E7FF"/>
<path d="M19.4987 22.0002C17.1975 22.0002 15.332 23.8656 15.332 26.1668C15.332 27.3024 15.7863 28.3319 16.5231 29.0835H47.4743C48.2111 28.3319 48.6654 27.3024 48.6654 26.1668C48.6654 23.8656 46.7999 22.0002 44.4987 22.0002H31.9987H19.4987Z" fill="#0061FF"/>
<path d="M31.9987 18.6668C31.9987 16.8259 33.4911 15.3335 35.332 15.3335C37.173 15.3335 38.6654 16.8259 38.6654 18.6668C38.6654 20.5078 37.173 22.0002 35.332 22.0002H31.9987V18.6668Z" fill="#0061FF"/>
<path d="M31.9987 18.6668C31.9987 16.8259 30.5063 15.3335 28.6654 15.3335C26.8244 15.3335 25.332 16.8259 25.332 18.6668C25.332 20.5078 26.8244 22.0002 28.6654 22.0002H31.9987V18.6668Z" fill="#0061FF"/>
<path d="M30.7487 31.5835H16.9619L16.967 31.7854C16.9815 32.345 16.9987 33.0135 16.9987 33.9049C16.9987 37.9727 16.9987 40.0065 17.633 41.6109C18.4788 43.75 20.1011 45.4496 22.143 46.3356C23.6744 47.0002 25.6158 47.0002 29.4987 47.0002H30.7487V31.5835Z" fill="#0061FF"/>
<path d="M33.2487 47.0002H34.4987C38.3815 47.0002 40.323 47.0002 41.8544 46.3356C43.8963 45.4496 45.5186 43.75 46.3643 41.6109C46.9987 40.0065 46.9987 37.9727 46.9987 33.9049C46.9987 32.9037 46.9987 32.1838 46.9892 31.5835H33.2487V47.0002Z" fill="#0061FF"/>
</svg>
