<svg width="64" height="64" viewBox="0 0 64 64" fill="none" xmlns="http://www.w3.org/2000/svg">
<rect width="64" height="64" rx="32" fill="#D9E7FF"/>
<path fill-rule="evenodd" clip-rule="evenodd" d="M31.523 13.7178C31.8396 13.7021 32.1568 13.7021 32.4734 13.7178C33.6957 13.7785 34.821 14.1337 36.0754 14.7158C37.2966 15.2825 38.7156 16.1018 40.5108 17.1383L40.6126 17.197C42.4079 18.2335 43.827 19.0528 44.9284 19.8271C46.0597 20.6224 46.9299 21.4193 47.5936 22.4475C47.7655 22.7138 47.9241 22.9885 48.0688 23.2706C48.6274 24.3594 48.8825 25.5115 49.0056 26.889C49.1254 28.2299 49.1254 29.8684 49.1254 31.9414V32.0589C49.1254 34.1319 49.1254 35.7705 49.0056 37.1115C48.8825 38.4889 48.6274 39.641 48.0688 40.7299C47.9241 41.0119 47.7655 41.2866 47.5936 41.5529C46.9299 42.5811 46.0597 43.3781 44.9284 44.1734C43.827 44.9476 42.4079 45.7669 40.6126 46.8034L40.511 46.8621C38.7157 47.8986 37.2966 48.7179 36.0754 49.2846C34.821 49.8668 33.6957 50.2219 32.4734 50.2826C32.1568 50.2983 31.8396 50.2983 31.523 50.2826C30.3007 50.2219 29.1755 49.8668 27.921 49.2846C26.6999 48.7179 25.2808 47.8986 23.4856 46.8621L23.3837 46.8033C21.5886 45.7669 20.1694 44.9476 19.0681 44.1734C17.9367 43.3781 17.0665 42.5811 16.4028 41.5529C16.2309 41.2866 16.0723 41.0119 15.9276 40.7299C15.369 39.641 15.114 38.4889 14.9909 37.1115C14.8711 35.7705 14.8711 34.1319 14.8711 32.0589V31.9415C14.8711 29.8685 14.8711 28.2299 14.9909 26.889C15.114 25.5115 15.369 24.3594 15.9276 23.2706C16.0723 22.9885 16.2309 22.7138 16.4028 22.4475C17.0665 21.4193 17.9367 20.6224 19.0681 19.8271C20.1695 19.0528 21.5885 18.2335 23.3838 17.197L23.4855 17.1384C25.2808 16.1018 26.6998 15.2825 27.921 14.7158C29.1755 14.1337 30.3007 13.7785 31.523 13.7178ZM41.4538 27.7888C41.7578 27.169 41.5018 26.4201 40.882 26.1161C40.2622 25.812 39.5133 26.068 39.2092 26.6878L36.7754 31.6496C36.021 33.1875 33.8037 33.1124 33.1551 31.5269C31.6898 27.9452 26.6808 27.7755 24.9765 31.2499L22.5426 36.2116C22.2386 36.8314 22.4945 37.5803 23.1143 37.8844C23.7341 38.1884 24.4831 37.9324 24.7871 37.3126L27.221 32.3509C27.9754 30.8129 30.1926 30.8881 30.8412 32.4735C32.3065 36.0553 37.3156 36.2249 39.0199 32.7506L41.4538 27.7888Z" fill="#0061FF"/>
</svg>
