<svg width="64" height="64" viewBox="0 0 64 64" fill="none" xmlns="http://www.w3.org/2000/svg">
<rect width="64" height="64" rx="32" fill="#D9E7FF"/>
<g clip-path="url(#clip0_1058_13311)">
<path d="M26.419 29.28C24.9772 27.8462 24.0846 25.8606 24.0846 23.6665C24.0846 21.4724 24.9772 19.4868 26.419 18.053C25.5889 17.6454 24.6552 17.4165 23.668 17.4165C20.2162 17.4165 17.418 20.2147 17.418 23.6665C17.418 27.1183 20.2162 29.9165 23.668 29.9165C24.6552 29.9165 25.5889 29.6876 26.419 29.28Z" fill="#0061FF"/>
<path d="M25.7513 23.6665C25.7513 20.2147 28.5495 17.4165 32.0013 17.4165C35.4531 17.4165 38.2513 20.2147 38.2513 23.6665C38.2513 27.1183 35.4531 29.9165 32.0013 29.9165C28.5495 29.9165 25.7513 27.1183 25.7513 23.6665Z" fill="#0061FF"/>
<path d="M37.5836 18.053C39.0254 19.4868 39.918 21.4724 39.918 23.6665C39.918 25.8606 39.0254 27.8462 37.5836 29.28C38.4137 29.6876 39.3474 29.9165 40.3346 29.9165C43.7864 29.9165 46.5846 27.1183 46.5846 23.6665C46.5846 20.2147 43.7864 17.4165 40.3346 17.4165C39.3474 17.4165 38.4137 17.6454 37.5836 18.053Z" fill="#0061FF"/>
<path d="M20.7513 38.6665C20.7513 35.2147 23.5495 32.4165 27.0013 32.4165H37.0013C40.4531 32.4165 43.2513 35.2147 43.2513 38.6665C43.2513 42.1183 40.4531 44.9165 37.0013 44.9165H27.0013C23.5495 44.9165 20.7513 42.1183 20.7513 38.6665Z" fill="#0061FF"/>
<path d="M12.418 36.9998C12.418 33.5481 15.2162 30.7498 18.668 30.7498H27.0013C22.629 30.7498 19.0846 34.2943 19.0846 38.6665C19.0846 40.3746 19.6256 41.9564 20.5456 43.2498H18.668C15.2162 43.2498 12.418 40.4516 12.418 36.9998Z" fill="#0061FF"/>
<path d="M44.918 38.6665C44.918 40.3746 44.377 41.9564 43.457 43.2498H45.3346C48.7864 43.2498 51.5846 40.4516 51.5846 36.9998C51.5846 33.5481 48.7864 30.7498 45.3346 30.7498H37.0013C41.3736 30.7498 44.918 34.2943 44.918 38.6665Z" fill="#0061FF"/>
</g>
<defs>
<clipPath id="clip0_1058_13311">
<rect width="40" height="40" fill="white" transform="translate(12 12)"/>
</clipPath>
</defs>
</svg>
