<svg width="64" height="64" viewBox="0 0 64 64" fill="none" xmlns="http://www.w3.org/2000/svg">
<rect width="64" height="64" rx="32" fill="#D9E7FF"/>
<path d="M31.9986 40.7918L25.0819 44.9585C24.7764 45.1529 24.4569 45.2363 24.1236 45.2085C23.7903 45.1807 23.4986 45.0696 23.2486 44.8752C22.9986 44.6807 22.8042 44.4379 22.6653 44.1468C22.5264 43.8557 22.4986 43.5291 22.5819 43.1668L24.4153 35.2918L18.2903 30.0002C18.0125 29.7502 17.8392 29.4652 17.7703 29.1452C17.7014 28.8252 17.7219 28.5129 17.8319 28.2085C17.9419 27.9041 18.1086 27.6541 18.3319 27.4585C18.5553 27.2629 18.8608 27.1379 19.2486 27.0835L27.3319 26.3752L30.4569 18.9585C30.5958 18.6252 30.8114 18.3752 31.1036 18.2085C31.3958 18.0418 31.6942 17.9585 31.9986 17.9585C32.303 17.9585 32.6014 18.0418 32.8936 18.2085C33.1858 18.3752 33.4014 18.6252 33.5403 18.9585L36.6653 26.3752L44.7486 27.0835C45.1375 27.1391 45.443 27.2641 45.6653 27.4585C45.8875 27.6529 46.0541 27.9029 46.1653 28.2085C46.2764 28.5141 46.2975 28.8268 46.2286 29.1468C46.1597 29.4668 45.9858 29.7513 45.7069 30.0002L39.5819 35.2918L41.4153 43.1668C41.4986 43.5279 41.4708 43.8546 41.3319 44.1468C41.193 44.4391 40.9986 44.6818 40.7486 44.8752C40.4986 45.0685 40.2069 45.1796 39.8736 45.2085C39.5403 45.2374 39.2208 45.154 38.9153 44.9585L31.9986 40.7918Z" fill="#0061FF"/>
</svg>
