<svg width="64" height="64" viewBox="0 0 64 64" fill="none" xmlns="http://www.w3.org/2000/svg">
<rect width="64" height="64" rx="32" fill="#D9E7FF"/>
<path fill-rule="evenodd" clip-rule="evenodd" d="M23.2869 18.7363C23.2869 16.1666 25.37 14.0835 27.9397 14.0835H36.5497C38.8509 14.0835 40.7164 15.949 40.7164 18.2502C40.7164 19.1706 41.4626 19.9168 42.383 19.9168H43.3653C46.0067 19.9168 48.3299 21.9668 48.2222 24.7762C48.0843 28.3779 47.3847 34.1553 44.5792 39.2682C43.8187 40.6541 42.803 42.0155 41.7051 43.284L41.6224 43.3795C40.043 45.2045 38.726 46.7262 37.3102 47.7634C35.7874 48.879 34.1621 49.4347 32.0016 49.4347C29.8411 49.4347 28.2158 48.879 26.693 47.7634C25.2772 46.7262 23.9603 45.2045 22.3809 43.3795L22.2982 43.284C21.2003 42.0155 20.1846 40.6541 19.4241 39.2682C16.7089 34.3199 15.9645 29.096 15.7953 25.7443C15.6527 22.9214 17.9926 20.8891 20.6194 20.8891H21.1341C22.3231 20.8891 23.2869 19.9252 23.2869 18.7363ZM37.9749 29.4511C38.408 28.9136 38.3234 28.1266 37.7858 27.6935C37.2483 27.2603 36.4613 27.345 36.0282 27.8825L32.659 32.0639C31.9672 32.9224 31.5307 33.4593 31.1674 33.7986C30.9967 33.958 30.8877 34.029 30.825 34.0603C30.7784 34.0837 30.7617 34.0836 30.7527 34.0835H30.7503C30.7414 34.0836 30.7247 34.0837 30.678 34.0603C30.6154 34.029 30.5063 33.958 30.3356 33.7986C29.9723 33.4593 29.5358 32.9224 28.844 32.0638L27.9749 30.9852C27.5417 30.4476 26.7548 30.363 26.2172 30.7961C25.6797 31.2293 25.595 32.0162 26.0282 32.5537L26.9516 33.6998C27.5725 34.4704 28.1202 35.1503 28.6293 35.6257C29.1758 36.1361 29.8553 36.5835 30.7515 36.5835C31.6478 36.5835 32.3273 36.1361 32.8738 35.6257C33.3828 35.1503 33.9305 34.4705 34.5514 33.6999L37.9749 29.4511Z" fill="#0061FF"/>
</svg>
