<svg width="36" height="36" viewBox="0 0 36 36" fill="none" xmlns="http://www.w3.org/2000/svg">
<g clip-path="url(#clip0_1058_12066)">
<path fill-rule="evenodd" clip-rule="evenodd" d="M25.4188 8.4276C27.8488 8.4276 30.4246 9.765 32.2588 12.078C26.2468 15.4098 27.2242 24.0912 33.2992 26.4114C32.4622 28.2834 32.0626 29.1204 30.9862 30.7782C29.4832 33.0894 27.3682 35.9694 24.742 35.9946C22.411 36.0162 21.8116 34.4592 18.6472 34.4772C15.4828 34.4952 14.8222 36.0216 12.4912 36C9.86684 35.9748 7.85984 33.3756 6.35684 31.0626C2.15564 24.597 1.71644 17.01 4.30844 12.978C6.14984 10.1088 9.05324 8.4294 11.7856 8.4294C14.5666 8.4294 16.3144 9.972 18.6148 9.972C20.8468 9.972 22.204 8.4276 25.4188 8.4276ZM24.7132 0C25.0372 2.187 24.148 4.329 22.9798 5.8446C21.7288 7.4682 19.5742 8.7264 17.4898 8.6616C17.1118 6.5682 18.0874 4.4136 19.2718 2.961C20.5732 1.359 22.8052 0.1332 24.7132 0Z" fill="white"/>
</g>
<defs>
<clipPath id="clip0_1058_12066">
<rect width="36" height="36" fill="white"/>
</clipPath>
</defs>
</svg>
