<svg width="56" height="56" viewBox="0 0 56 56" fill="none" xmlns="http://www.w3.org/2000/svg">
<rect width="56" height="56" rx="28" fill="#0061FF"/>
<g clip-path="url(#clip0_1058_13594)">
<path fill-rule="evenodd" clip-rule="evenodd" d="M27.9703 15.4288C27.0148 15.4116 26.0652 15.5829 25.176 15.933C24.2868 16.2832 23.4754 16.8052 22.7881 17.4693C22.1009 18.1334 21.5514 18.9265 21.171 19.8032C20.7907 20.6799 20.5869 21.623 20.5714 22.5785V32.5717C20.5714 33.1779 20.3306 33.7593 19.902 34.1879C19.4733 34.6166 18.8919 34.8574 18.2857 34.8574H15.4286C14.5193 34.8574 13.6472 34.4962 13.0042 33.8532C12.3612 33.2102 12 32.3381 12 31.4288V26.8574C12 25.9481 12.3612 25.076 13.0042 24.433C13.6472 23.79 14.5193 23.4288 15.4286 23.4288H17.1429V22.5374C17.1637 21.1326 17.4611 19.7456 18.018 18.4557C18.575 17.1659 19.3806 15.9984 20.3888 15.0199C21.397 14.0414 22.5881 13.2711 23.894 12.753C25.2 12.2348 26.5952 11.9791 28 12.0002C29.4048 11.9791 30.8 12.2348 32.106 12.753C33.4119 13.2711 34.603 14.0414 35.6112 15.0199C36.6194 15.9984 37.425 17.1659 37.982 18.4557C38.5389 19.7456 38.8363 21.1326 38.8571 22.5374V23.4288H40.5714C41.4807 23.4288 42.3528 23.79 42.9958 24.433C43.6388 25.076 44 25.9481 44 26.8574V31.4288C44 32.3381 43.6388 33.2102 42.9958 33.8532C42.3528 34.4962 41.4807 34.8574 40.5714 34.8574H38.8571V36.0002C38.8574 37.5448 38.289 39.0355 37.2603 40.1877C36.2317 41.3399 34.8147 42.073 33.28 42.2471C32.982 42.7792 32.5473 43.2222 32.021 43.5304C31.4947 43.8386 30.8956 44.0008 30.2857 44.0002H26.8571C25.9478 44.0002 25.0758 43.639 24.4328 42.996C23.7898 42.3531 23.4286 41.481 23.4286 40.5717C23.4286 39.6624 23.7898 38.7903 24.4328 38.1473C25.0758 37.5043 25.9478 37.1431 26.8571 37.1431H30.2857C31.5246 37.1431 32.6103 37.7991 33.2114 38.7842C33.8414 38.6394 34.4037 38.2853 34.8064 37.7796C35.2091 37.2739 35.4284 36.6467 35.4286 36.0002V22.5762C35.4129 21.6158 35.207 20.668 34.8228 19.7876C34.4386 18.9072 33.8836 18.1117 33.1901 17.447C32.4966 16.7824 31.6782 16.2618 30.7822 15.9154C29.8863 15.569 28.9305 15.4036 27.9703 15.4288Z" fill="white"/>
</g>
<defs>
<clipPath id="clip0_1058_13594">
<rect width="32" height="32" fill="white" transform="translate(12 12)"/>
</clipPath>
</defs>
</svg>
