<svg width="56" height="56" viewBox="0 0 56 56" fill="none" xmlns="http://www.w3.org/2000/svg">
<rect width="56" height="56" rx="28" fill="#0061FF"/>
<path d="M13.332 38.6669V34.9335C13.332 34.178 13.5267 33.4838 13.916 32.8509C14.3054 32.218 14.8218 31.7344 15.4654 31.4002C16.8431 30.7113 18.2431 30.1949 19.6654 29.8509C21.0876 29.5069 22.532 29.3344 23.9987 29.3335C25.4654 29.3326 26.9098 29.5051 28.332 29.8509C29.7543 30.1966 31.1543 30.7131 32.532 31.4002C33.1765 31.7335 33.6934 32.2171 34.0827 32.8509C34.472 33.4846 34.6663 34.1789 34.6654 34.9335V38.6669H13.332ZM37.332 38.6669V34.6669C37.332 33.6891 37.06 32.75 36.516 31.8495C35.972 30.9491 35.1996 30.1771 34.1987 29.5335C35.332 29.6669 36.3987 29.8949 37.3987 30.2175C38.3987 30.5402 39.332 30.9344 40.1987 31.4002C40.9987 31.8446 41.6098 32.3389 42.032 32.8829C42.4543 33.4269 42.6654 34.0215 42.6654 34.6669V38.6669H37.332ZM20.232 26.4335C19.1876 25.3891 18.6654 24.1335 18.6654 22.6669C18.6654 21.2002 19.1876 19.9446 20.232 18.9002C21.2765 17.8558 22.532 17.3335 23.9987 17.3335C25.4654 17.3335 26.7209 17.8558 27.7654 18.9002C28.8098 19.9446 29.332 21.2002 29.332 22.6669C29.332 24.1335 28.8098 25.3891 27.7654 26.4335C26.7209 27.478 25.4654 28.0002 23.9987 28.0002C22.532 28.0002 21.2765 27.478 20.232 26.4335ZM35.7654 26.4335C34.7209 27.478 33.4654 28.0002 31.9987 28.0002C31.7543 28.0002 31.4431 27.9726 31.0654 27.9175C30.6876 27.8624 30.3765 27.8011 30.132 27.7335C30.732 27.0224 31.1934 26.2335 31.516 25.3669C31.8387 24.5002 31.9996 23.6002 31.9987 22.6669C31.9978 21.7335 31.8369 20.8335 31.516 19.9669C31.1951 19.1002 30.7338 18.3113 30.132 17.6002C30.4431 17.4891 30.7543 17.4166 31.0654 17.3829C31.3765 17.3491 31.6876 17.3326 31.9987 17.3335C33.4654 17.3335 34.7209 17.8558 35.7654 18.9002C36.8098 19.9446 37.332 21.2002 37.332 22.6669C37.332 24.1335 36.8098 25.3891 35.7654 26.4335Z" fill="white"/>
</svg>
