<svg width="56" height="56" viewBox="0 0 56 56" fill="none" xmlns="http://www.w3.org/2000/svg">
<rect width="56" height="56" rx="28" fill="#0061FF"/>
<path d="M20.9587 34.1865C21.2982 34.0875 21.6631 34.1274 21.9731 34.2974C22.2832 34.4675 22.513 34.7537 22.612 35.0932C22.711 35.4326 22.6711 35.7976 22.5011 36.1076C22.3311 36.4177 22.0448 36.6475 21.7054 36.7465C21.0387 36.9412 20.5587 37.1465 20.2507 37.3332C20.568 37.5238 21.0694 37.7372 21.7654 37.9358C23.3054 38.3758 25.5094 38.6665 27.9987 38.6665C30.488 38.6665 32.692 38.3758 34.232 37.9358C34.9294 37.7372 35.4294 37.5238 35.7467 37.3332C35.44 37.1465 34.96 36.9412 34.2934 36.7465C33.9592 36.6431 33.6791 36.4126 33.5133 36.1046C33.3476 35.7966 33.3095 35.4358 33.4073 35.1C33.505 34.7642 33.7308 34.4803 34.036 34.3094C34.3412 34.1385 34.7013 34.0944 35.0387 34.1865C35.9294 34.4465 36.7454 34.7798 37.372 35.2078C37.952 35.6065 38.6654 36.3012 38.6654 37.3332C38.6654 38.3772 37.9347 39.0772 37.3454 39.4758C36.708 39.9052 35.8747 40.2398 34.964 40.4998C33.1267 41.0265 30.6654 41.3332 27.9987 41.3332C25.332 41.3332 22.8707 41.0265 21.0334 40.4998C20.1227 40.2398 19.2894 39.9052 18.652 39.4758C18.0627 39.0758 17.332 38.3772 17.332 37.3332C17.332 36.3012 18.0454 35.6065 18.6254 35.2078C19.252 34.7798 20.068 34.4465 20.9587 34.1865ZM27.9987 14.6665C30.6509 14.6665 33.1944 15.7201 35.0698 17.5954C36.9451 19.4708 37.9987 22.0143 37.9987 24.6665C37.9987 28.0905 36.132 30.8745 34.1987 32.8532C33.4302 33.6317 32.6043 34.3515 31.728 35.0065C30.936 35.6012 29.1254 36.7158 29.1254 36.7158C28.7819 36.911 28.3937 37.0137 27.9987 37.0137C27.6037 37.0137 27.2154 36.911 26.872 36.7158C25.9734 36.1948 25.1045 35.6241 24.2694 35.0065C23.3918 34.3531 22.5658 33.6332 21.7987 32.8532C19.8654 30.8745 17.9987 28.0905 17.9987 24.6665C17.9987 22.0143 19.0523 19.4708 20.9276 17.5954C22.803 15.7201 25.3465 14.6665 27.9987 14.6665ZM27.9987 21.9998C27.2915 21.9998 26.6132 22.2808 26.1131 22.7809C25.613 23.281 25.332 23.9593 25.332 24.6665C25.332 25.3737 25.613 26.052 26.1131 26.5521C26.6132 27.0522 27.2915 27.3332 27.9987 27.3332C28.7059 27.3332 29.3842 27.0522 29.8843 26.5521C30.3844 26.052 30.6654 25.3737 30.6654 24.6665C30.6654 23.9593 30.3844 23.281 29.8843 22.7809C29.3842 22.2808 28.7059 21.9998 27.9987 21.9998Z" fill="white"/>
</svg>
