<svg width="56" height="56" viewBox="0 0 56 56" fill="none" xmlns="http://www.w3.org/2000/svg">
<rect width="56" height="56" rx="28" fill="#0061FF"/>
<g clip-path="url(#clip0_1058_13573)">
<path d="M40.7362 17.3331C40.615 17.3206 40.4929 17.3206 40.3717 17.3331H15.4828C15.3233 17.3356 15.1649 17.3595 15.0117 17.4042L27.8562 30.1953L40.7362 17.3331Z" fill="white"/>
<path d="M42.0526 18.5688L29.1104 31.4577C28.7773 31.7888 28.3267 31.9747 27.8571 31.9747C27.3874 31.9747 26.9368 31.7888 26.6037 31.4577L13.7771 18.6666C13.7376 18.8116 13.7167 18.9609 13.7148 19.1111V36.8888C13.7148 37.3603 13.9021 37.8125 14.2355 38.1459C14.5689 38.4793 15.0211 38.6666 15.4926 38.6666H40.3815C40.853 38.6666 41.3052 38.4793 41.6386 38.1459C41.972 37.8125 42.1593 37.3603 42.1593 36.8888V19.1111C42.1522 18.9259 42.1162 18.7429 42.0526 18.5688ZM16.7104 36.8888H15.4748V35.6177L21.9371 29.2088L23.1904 30.4622L16.7104 36.8888ZM40.3637 36.8888H39.1193L32.6393 30.4622L33.8926 29.2088L40.3548 35.6177L40.3637 36.8888Z" fill="white"/>
</g>
<defs>
<clipPath id="clip0_1058_13573">
<rect width="32" height="32" fill="white" transform="translate(12 12)"/>
</clipPath>
</defs>
</svg>
