<svg width="56" height="56" viewBox="0 0 56 56" fill="none" xmlns="http://www.w3.org/2000/svg">
<path d="M33.4641 32.6828L35.9473 32.9434V53.1562L29.0882 45.832V34.1796L31.0804 35.1525L33.4641 32.6828ZM22.5321 32.6828L20.0475 32.9434V53.1562L26.9065 45.832V34.1796L24.9145 35.1525L22.5321 32.6828ZM41.3424 20.0193L42.146 22.8165L39.7337 24.4429L39.5317 27.3491L36.7087 28.0518L35.5271 30.7112L32.6331 30.4055L30.6124 32.4931L27.9981 31.216L25.3838 32.4931L23.3631 30.3986L20.469 30.7043L19.2875 28.0451L16.4645 27.3491L16.2625 24.447L13.8433 22.8151L14.647 20.018L12.9414 17.6617L14.6525 15.3079L13.8433 12.5163L16.257 10.8899L16.459 7.98766L19.2875 7.29181L20.469 4.63258L23.3631 4.93817L25.3838 2.84375L27.9981 4.12092L30.6124 2.84375L32.6331 4.93817L35.5271 4.63258L36.7087 7.29181L39.5317 7.99455L39.7337 10.8967L42.146 12.5231L41.3424 15.3203L43.0548 17.6617L41.3424 20.0193ZM35.9596 17.6617C35.9596 16.0989 35.4962 14.5712 34.628 13.2718C33.7597 11.9724 32.5257 10.9597 31.0819 10.3617C29.6381 9.76361 28.0494 9.60713 26.5166 9.91201C24.9839 10.2169 23.576 10.9694 22.4709 12.0745C21.3659 13.1795 20.6134 14.5874 20.3085 16.1202C20.0036 17.6529 20.1601 19.2416 20.7581 20.6854C21.3562 22.1292 22.3689 23.3633 23.6683 24.2315C24.9677 25.0997 26.4954 25.5631 28.0581 25.5631C30.1527 25.5599 32.1606 24.7263 33.6417 23.2452C35.1228 21.7641 35.9563 19.7563 35.9596 17.6617ZM28.0581 11.9432C26.9272 11.9432 25.8216 12.2786 24.8812 12.9069C23.9408 13.5352 23.2079 14.4283 22.7751 15.4732C22.3423 16.5181 22.229 17.6679 22.4497 18.7771C22.6703 19.8863 23.2149 20.9053 24.0146 21.705C24.8143 22.5047 25.8332 23.0493 26.9425 23.27C28.0517 23.4907 29.2015 23.3774 30.2464 22.9446C31.2913 22.5118 32.1843 21.7789 32.8127 20.8386C33.4411 19.8982 33.7764 18.7926 33.7765 17.6617C33.7721 16.1468 33.1681 14.6952 32.0966 13.6244C31.025 12.5536 29.573 11.9506 28.0581 11.9474V11.9432Z" fill="#0061FF"/>
</svg>
