<svg width="56" height="56" viewBox="0 0 56 56" fill="none" xmlns="http://www.w3.org/2000/svg">
<g clip-path="url(#clip0_1058_12600)">
<path fill-rule="evenodd" clip-rule="evenodd" d="M27.948 6.00005C26.2759 5.96985 24.6142 6.2697 23.0581 6.88243C21.5019 7.49516 20.0819 8.40874 18.8793 9.57089C17.6766 10.733 16.7149 12.121 16.0493 13.6552C15.3836 15.1894 15.0271 16.8399 15 18.512V36C15 37.0609 14.5786 38.0783 13.8284 38.8285C13.0783 39.5786 12.0609 40 11 40H6C4.4087 40 2.88258 39.3679 1.75736 38.2427C0.632141 37.1175 0 35.5913 0 34L0 26C0 24.4088 0.632141 22.8826 1.75736 21.7574C2.88258 20.6322 4.4087 20 6 20H9V18.4401C9.0365 15.9816 9.55693 13.5545 10.5316 11.2972C11.5062 9.03993 12.916 6.99676 14.6803 5.2844C16.4447 3.57203 18.5291 2.22401 20.8145 1.31731C23.0999 0.410611 25.5416 -0.0369962 28 5.00598e-05C30.4584 -0.0369962 32.9001 0.410611 35.1855 1.31731C37.4709 2.22401 39.5553 3.57203 41.3197 5.2844C43.084 6.99676 44.4938 9.03993 45.4684 11.2972C46.4431 13.5545 46.9635 15.9816 47 18.4401V20H50C51.5913 20 53.1174 20.6322 54.2426 21.7574C55.3679 22.8826 56 24.4088 56 26V34C56 35.5913 55.3679 37.1175 54.2426 38.2427C53.1174 39.3679 51.5913 40 50 40H47V42C47.0005 44.7031 46.0058 47.3117 44.2056 49.328C42.4054 51.3444 39.9258 52.6273 37.24 52.932C36.7184 53.8633 35.9579 54.6385 35.0368 55.1778C34.1157 55.7171 33.0674 56.001 32 56H26C24.4087 56 22.8826 55.3679 21.7574 54.2427C20.6321 53.1175 20 51.5913 20 50C20 48.4088 20.6321 46.8826 21.7574 45.7574C22.8826 44.6322 24.4087 44 26 44H32C34.168 44 36.068 45.1481 37.12 46.8721C38.2225 46.6187 39.2065 45.9989 39.9112 45.114C40.616 44.229 40.9998 43.1313 41 42V18.508C40.9726 16.8272 40.6122 15.1686 39.9398 13.6279C39.2675 12.0872 38.2964 10.695 37.0827 9.53192C35.869 8.36882 34.4368 7.45783 32.8689 6.8516C31.301 6.24538 29.6284 5.95595 27.948 6.00005Z" fill="#0061FF"/>
</g>
<defs>
<clipPath id="clip0_1058_12600">
<rect width="56" height="56" fill="white"/>
</clipPath>
</defs>
</svg>
