<svg width="84" height="84" viewBox="0 0 84 84" fill="none" xmlns="http://www.w3.org/2000/svg">
<rect width="84" height="84" rx="42" fill="#D9E7FF"/>
<path fill-rule="evenodd" clip-rule="evenodd" d="M30.5209 23.9492C30.5209 20.3874 33.2182 17.5 36.5455 17.5H47.6939C50.6736 17.5 53.089 20.0857 53.089 23.2754C53.089 24.5512 54.0552 25.5855 55.2471 25.5855H56.5189C59.9391 25.5855 62.9472 28.427 62.8078 32.321C62.6292 37.3134 61.7234 45.3214 58.0907 52.4082C57.106 54.3292 55.7909 56.2163 54.3692 57.9746L54.2622 58.1069C52.2171 60.6366 50.5119 62.7457 48.6787 64.1834C46.7069 65.7297 44.6024 66.5 41.805 66.5C39.0075 66.5 36.903 65.7297 34.9313 64.1834C33.0981 62.7457 31.3929 60.6366 29.3478 58.1069L29.2407 57.9746C27.8191 56.2163 26.504 54.3292 25.5193 52.4082C22.0035 45.5494 21.0396 38.3087 20.8205 33.6629C20.636 29.7501 23.6657 26.9331 27.0669 26.9331H27.7334C29.2729 26.9331 30.5209 25.5972 30.5209 23.9492ZM49.5393 38.8009C50.1001 38.0558 49.9905 36.9651 49.2945 36.3647C48.5984 35.7643 47.5795 35.8816 47.0187 36.6267L42.6562 42.4224C41.7604 43.6124 41.1952 44.3567 40.7248 44.8269C40.5038 45.0479 40.3626 45.1462 40.2814 45.1897C40.221 45.222 40.1995 45.2219 40.1879 45.2218H40.1847C40.1731 45.2219 40.1516 45.222 40.0911 45.1897C40.01 45.1462 39.8688 45.0479 39.6478 44.8269C39.1774 44.3567 38.6122 43.6124 37.7164 42.4224L36.591 40.9273C36.0302 40.1821 35.0112 40.0648 34.3152 40.6652C33.6191 41.2656 33.5095 42.3563 34.0704 43.1014L35.2661 44.69C36.07 45.7581 36.7792 46.7006 37.4383 47.3595C38.146 48.0669 39.0258 48.687 40.1863 48.687C41.3468 48.687 42.2266 48.0669 42.9343 47.3595C43.5933 46.7006 44.3026 45.7582 45.1064 44.6901L49.5393 38.8009Z" fill="#0061FF"/>
</svg>
