<svg width="84" height="84" viewBox="0 0 84 84" fill="none" xmlns="http://www.w3.org/2000/svg">
<rect width="84" height="84" rx="42" fill="#D9E7FF"/>
<path fill-rule="evenodd" clip-rule="evenodd" d="M44.8738 17.1733C46.3485 15.4046 49.2208 16.6133 48.9875 18.9046L47.3401 35H60.6658C61.1092 35.0001 61.5433 35.1266 61.9174 35.3646C62.2915 35.6026 62.59 35.9422 62.778 36.3438C62.9661 36.7453 63.0358 37.1921 62.9791 37.6318C62.9224 38.0715 62.7416 38.486 62.4578 38.8266L39.1245 66.8266C37.6498 68.5953 34.7775 67.3866 35.0108 65.0953L36.6581 49H23.3325C22.8891 48.9998 22.455 48.8733 22.0809 48.6353C21.7068 48.3974 21.4083 48.0577 21.2202 47.6562C21.0322 47.2547 20.9625 46.8079 21.0192 46.3682C21.0759 45.9284 21.2567 45.514 21.5405 45.1733L44.8738 17.1733Z" fill="#0061FF"/>
</svg>
