<svg width="84" height="84" viewBox="0 0 84 84" fill="none" xmlns="http://www.w3.org/2000/svg">
<rect width="84" height="84" rx="42" fill="#D9E7FF"/>
<path d="M40.0106 31.2166C40.154 31.1338 40.2997 31.0594 40.4473 30.9932L40.4473 39.6738C36.9428 38.1264 36.6146 33.1773 40.0106 31.2166Z" fill="#0061FF"/>
<path d="M43.678 53.0069L43.6781 44.3262C47.1826 45.8736 47.5109 50.8227 44.1148 52.7834C43.9714 52.8662 43.8256 52.9407 43.678 53.0069Z" fill="#0061FF"/>
<path fill-rule="evenodd" clip-rule="evenodd" d="M41.965 21H42.16C46.1156 21 49.2163 21 51.6762 21.2665C54.1866 21.5385 56.2207 22.1035 57.9574 23.3653C59.0088 24.1291 59.9334 25.0537 60.6973 26.1051C61.959 27.8418 62.524 29.8759 62.796 32.3863C63.0625 34.8462 63.0625 37.9468 63.0625 41.9023V42.0975C63.0625 46.053 63.0625 49.1538 62.796 51.6137C62.524 54.1241 61.959 56.1582 60.6973 57.8949C59.9334 58.9463 59.0088 59.8709 57.9574 60.6348C56.2207 61.8965 54.1866 62.4615 51.6762 62.7335C49.2163 63 46.1157 63 42.1602 63H41.965C38.0095 63 34.9087 63 32.4488 62.7335C29.9384 62.4615 27.9043 61.8965 26.1676 60.6348C25.1162 59.8709 24.1916 58.9463 23.4278 57.8949C22.166 56.1582 21.601 54.1241 21.329 51.6137C21.0625 49.1538 21.0625 46.0531 21.0625 42.0975V41.9025C21.0625 37.9469 21.0625 34.8462 21.329 32.3863C21.601 29.8759 22.166 27.8418 23.4278 26.1051C24.1916 25.0537 25.1162 24.1291 26.1676 23.3653C27.9043 22.1035 29.9384 21.5385 32.4488 21.2665C34.9087 21 38.0094 21 41.965 21ZM43.678 26.9231C43.678 26.0309 42.9548 25.3077 42.0626 25.3077C41.1705 25.3077 40.4472 26.0309 40.4472 26.9231V27.5866C39.7434 27.7632 39.0528 28.039 38.3952 28.4187C32.5327 31.8034 33.2779 40.49 39.6311 42.8268L40.4473 43.127L40.4473 53.2419C39.2952 52.917 38.2658 52.1597 37.6214 51.0435L36.8125 49.6424C36.3664 48.8698 35.3784 48.605 34.6058 49.0511C33.8332 49.4972 33.5685 50.4852 34.0145 51.2578L34.8234 52.6589C36.0694 54.8169 38.1699 56.1715 40.4472 56.546L40.4472 57.0769C40.4472 57.9691 41.1705 58.6923 42.0626 58.6923C42.9548 58.6923 43.678 57.9691 43.678 57.0769L43.678 56.4134C44.3819 56.2369 45.0726 55.961 45.7302 55.5813C51.5927 52.1966 50.8476 43.51 44.4943 41.1732L43.6781 40.873L43.678 30.7581C44.8302 31.083 45.8596 31.8403 46.5041 32.9565L47.313 34.3576C47.7591 35.1302 48.747 35.395 49.5196 34.9489C50.2923 34.5028 50.557 33.5148 50.1109 32.7422L49.302 31.3412C48.056 29.1831 45.9555 27.8284 43.678 27.454V26.9231Z" fill="#0061FF"/>
</svg>
