<svg width="32" height="32" viewBox="0 0 32 32" fill="none" xmlns="http://www.w3.org/2000/svg">
<path fill-rule="evenodd" clip-rule="evenodd" d="M14.9838 3.73188C14.1651 3.83988 13.1544 4.07188 11.7171 4.40388L10.0784 4.78255C8.8651 5.06255 8.02777 5.25722 7.3891 5.47588C6.77177 5.68788 6.42244 5.89588 6.15977 6.15988C5.89577 6.42255 5.68777 6.77188 5.47577 7.38922C5.2571 8.02788 5.06244 8.86388 4.78244 10.0786L4.40377 11.7159C4.07177 13.1545 3.83977 14.1652 3.73177 14.9839C3.6251 15.7812 3.65044 16.3212 3.79177 16.8119C3.93177 17.3026 4.1971 17.7732 4.7091 18.3932C5.23577 19.0306 5.96777 19.7652 7.01177 20.8092L9.45177 23.2492C11.2638 25.0612 12.5531 26.3479 13.6624 27.1932C14.7478 28.0225 15.5424 28.3332 16.3491 28.3332C17.1558 28.3332 17.9504 28.0225 19.0371 27.1932C20.1451 26.3479 21.4358 25.0599 23.2478 23.2479C25.0611 21.4345 26.3478 20.1452 27.1944 19.0372C28.0211 17.9506 28.3331 17.1572 28.3331 16.3492C28.3331 15.5426 28.0224 14.7492 27.1931 13.6625C26.3478 12.5532 25.0598 11.2626 23.2478 9.45055L20.8078 7.01055C19.7651 5.96788 19.0304 5.23588 18.3944 4.70922C17.7731 4.19722 17.3024 3.93188 16.8118 3.79188C16.3211 3.65055 15.7811 3.62655 14.9851 3.73188M14.7238 1.74922C15.6798 1.62255 16.5184 1.62655 17.3638 1.86922C18.2104 2.11188 18.9238 2.55322 19.6678 3.16655C20.3878 3.76122 21.1878 4.56122 22.1891 5.56255L24.7171 8.09055C26.4638 9.83722 27.8478 11.2212 28.7838 12.4506C29.7491 13.7132 30.3344 14.9292 30.3344 16.3492C30.3344 17.7705 29.7491 18.9865 28.7851 20.2492C27.8478 21.4785 26.4651 22.8625 24.7171 24.6092L24.6104 24.7159C22.8638 26.4625 21.4798 27.8465 20.2504 28.7825C18.9878 29.7479 17.7704 30.3332 16.3504 30.3332C14.9304 30.3332 13.7144 29.7479 12.4504 28.7839C11.2224 27.8465 9.83844 26.4639 8.09044 24.7159L5.56377 22.1865C4.56377 21.1865 3.76244 20.3852 3.16777 19.6665C2.55444 18.9212 2.1131 18.2079 1.87044 17.3626C1.62777 16.5159 1.62377 15.6772 1.75044 14.7212C1.87177 13.7959 2.12777 12.6919 2.4451 11.3132L2.8451 9.57588C3.11177 8.42522 3.32777 7.48655 3.5851 6.73855C3.85444 5.95588 4.19177 5.29855 4.74644 4.74388C5.3011 4.18922 5.95977 3.85055 6.7411 3.58388C7.4891 3.32522 8.42777 3.10922 9.57844 2.84388L11.3158 2.44388C12.6944 2.12388 13.7984 1.87055 14.7238 1.74788M12.6531 10.6599C12.3405 10.3473 11.9165 10.1717 11.4744 10.1717C11.0324 10.1717 10.6084 10.3473 10.2958 10.6599C9.98317 10.9725 9.80755 11.3965 9.80755 11.8385C9.80755 12.2806 9.98317 12.7046 10.2958 13.0172C10.4506 13.172 10.6343 13.2948 10.8365 13.3786C11.0388 13.4623 11.2555 13.5054 11.4744 13.5054C11.6933 13.5054 11.9101 13.4623 12.1123 13.3786C12.3146 13.2948 12.4983 13.172 12.6531 13.0172C12.8079 12.8624 12.9307 12.6787 13.0144 12.4764C13.0982 12.2742 13.1413 12.0574 13.1413 11.8385C13.1413 11.6197 13.0982 11.4029 13.0144 11.2007C12.9307 10.9984 12.8079 10.8147 12.6531 10.6599ZM8.8811 9.24655C9.56872 8.55876 10.5014 8.17229 11.474 8.17216C12.4465 8.17204 13.3793 8.55827 14.0671 9.24588C14.7549 9.9335 15.1414 10.8662 15.1415 11.8387C15.1416 12.8113 14.7554 13.7441 14.0678 14.4319C13.38 15.1197 12.4471 15.5061 11.4744 15.5061C10.5017 15.5061 9.5689 15.1197 8.8811 14.4319C8.19331 13.7441 7.80691 12.8112 7.80691 11.8385C7.80691 10.8659 8.19331 9.93435 8.8811 9.24655ZM17.3211 16.1412C17.0128 16.153 16.7216 16.2857 16.5104 16.5106C15.9931 17.0279 16.1291 17.5439 16.2744 17.6892C16.4211 17.8346 16.9371 17.9692 17.4531 17.4532C18.4984 16.4079 20.3038 16.0612 21.4598 17.2172C22.3571 18.1145 22.3504 19.4025 21.8131 20.4226C21.9453 20.6147 22.0061 20.8471 21.9851 21.0794C21.9641 21.3117 21.8625 21.5293 21.698 21.6947C21.5334 21.86 21.3163 21.9626 21.0841 21.9847C20.8519 22.0069 20.6193 21.9471 20.4264 21.8159C19.8281 22.1442 19.1341 22.2536 18.4638 22.1252C18.3351 22.0988 18.2128 22.0472 18.1041 21.9736C17.9953 21.8999 17.9021 21.8055 17.8298 21.6958C17.7575 21.5861 17.7075 21.4633 17.6827 21.3342C17.6578 21.2052 17.6587 21.0726 17.6851 20.9439C17.7115 20.8152 17.7631 20.693 17.8367 20.5842C17.9104 20.4754 18.0048 20.3822 18.1145 20.3099C18.2242 20.2376 18.3471 20.1876 18.4761 20.1628C18.6051 20.1379 18.7377 20.1388 18.8664 20.1652C19.1024 20.2146 19.4838 20.1385 19.8104 19.8105C20.3264 19.2932 20.1918 18.7772 20.0464 18.6319C19.8998 18.4865 19.3838 18.3519 18.8678 18.8679C17.8224 19.9132 16.0171 20.2599 14.8611 19.1039C13.9638 18.2066 13.9704 16.9185 14.5078 15.8986C14.3756 15.7064 14.3147 15.474 14.3358 15.2417C14.3568 15.0094 14.4584 14.7918 14.6229 14.6264C14.7874 14.4611 15.0046 14.3585 15.2368 14.3364C15.469 14.3142 15.7016 14.374 15.8944 14.5052C16.3478 14.2639 16.8451 14.1359 17.3411 14.1412C17.6063 14.1437 17.8597 14.2514 18.0455 14.4407C18.2313 14.63 18.3342 14.8853 18.3318 15.1505C18.3293 15.4158 18.2216 15.6691 18.0323 15.8549C17.843 16.0407 17.5863 16.1437 17.3211 16.1412Z" fill="#0061FF" fill-opacity="0.3"/>
</svg>
