<svg width="32" height="32" viewBox="0 0 32 32" fill="none" xmlns="http://www.w3.org/2000/svg">
<path d="M4.98854 27.4067C6.58854 29.3333 9.56454 29.3333 15.5192 29.3333H16.4792C22.4339 29.3333 25.4112 29.3333 27.0112 27.4067M4.98854 27.4067C3.38854 25.4787 3.93787 22.5533 5.0352 16.7C5.8152 12.54 6.20454 10.4587 7.68587 9.22933M27.0112 27.4067C28.6112 25.4787 28.0619 22.5533 26.9645 16.7C26.1845 12.54 25.7939 10.4587 24.3125 9.22933M24.3125 9.22933C22.8325 8 20.7139 8 16.4805 8H15.5179C11.2845 8 9.1672 8 7.68587 9.22933" stroke="#0061FF" stroke-opacity="0.3" stroke-width="1.5"/>
<path d="M12 8.00008V6.66675C12 5.60588 12.4214 4.58847 13.1716 3.83832C13.9217 3.08818 14.9391 2.66675 16 2.66675C17.0609 2.66675 18.0783 3.08818 18.8284 3.83832C19.5786 4.58847 20 5.60588 20 6.66675V8.00008" stroke="#0061FF" stroke-opacity="0.3" stroke-width="1.5" stroke-linecap="round"/>
</svg>
