<svg width="32" height="32" viewBox="0 0 32 32" fill="none" xmlns="http://www.w3.org/2000/svg">
<path d="M5.33203 23.9998C5.33203 22.5853 5.89393 21.2288 6.89413 20.2286C7.89432 19.2284 9.25088 18.6665 10.6654 18.6665H21.332C22.7465 18.6665 24.1031 19.2284 25.1033 20.2286C26.1035 21.2288 26.6654 22.5853 26.6654 23.9998C26.6654 24.7071 26.3844 25.3854 25.8843 25.8855C25.3842 26.3856 24.7059 26.6665 23.9987 26.6665H7.9987C7.29145 26.6665 6.61318 26.3856 6.11308 25.8855C5.61298 25.3854 5.33203 24.7071 5.33203 23.9998Z" stroke="#0061FF" stroke-opacity="0.3" stroke-width="2" stroke-linejoin="round"/>
<path d="M16 13.3333C18.2091 13.3333 20 11.5424 20 9.33325C20 7.12411 18.2091 5.33325 16 5.33325C13.7909 5.33325 12 7.12411 12 9.33325C12 11.5424 13.7909 13.3333 16 13.3333Z" stroke="#0061FF" stroke-opacity="0.3" stroke-width="2"/>
</svg>
