<svg width="40" height="40" viewBox="0 0 40 40" fill="none" xmlns="http://www.w3.org/2000/svg">
<path d="M20 3.3335C23.9782 3.3335 27.7936 4.91385 30.6066 7.72689C33.4196 10.5399 35 14.3552 35 18.3335C35 23.4568 32.2067 27.6502 29.2633 30.6585C27.7928 32.1453 26.1882 33.4932 24.47 34.6852L23.76 35.1685L23.4267 35.3902L22.7983 35.7902L22.2383 36.1318L21.545 36.5352C21.0744 36.8038 20.5419 36.9451 20 36.9451C19.4581 36.9451 18.9256 36.8038 18.455 36.5352L17.7617 36.1318L16.895 35.5985L16.575 35.3902L15.8917 34.9352C14.0381 33.681 12.3115 32.2487 10.7367 30.6585C7.79333 27.6485 5 23.4568 5 18.3335C5 14.3552 6.58035 10.5399 9.3934 7.72689C12.2064 4.91385 16.0218 3.3335 20 3.3335ZM20 13.3335C19.3434 13.3335 18.6932 13.4628 18.0866 13.7141C17.48 13.9654 16.9288 14.3337 16.4645 14.798C16.0002 15.2623 15.6319 15.8135 15.3806 16.4201C15.1293 17.0267 15 17.6769 15 18.3335C15 18.9901 15.1293 19.6403 15.3806 20.2469C15.6319 20.8535 16.0002 21.4047 16.4645 21.869C16.9288 22.3333 17.48 22.7016 18.0866 22.9529C18.6932 23.2042 19.3434 23.3335 20 23.3335C21.3261 23.3335 22.5979 22.8067 23.5355 21.869C24.4732 20.9313 25 19.6596 25 18.3335C25 17.0074 24.4732 15.7356 23.5355 14.798C22.5979 13.8603 21.3261 13.3335 20 13.3335Z" fill="#3870FF"/>
</svg>
