<svg width="42" height="42" viewBox="0 0 42 42" fill="none" xmlns="http://www.w3.org/2000/svg">
<path d="M12.75 20.75H12H12.75ZM28.75 20.75H29.5H28.75ZM20.75 28.75V29.5V28.75ZM39.275 13.1979L39.9694 12.9145L39.275 13.1979ZM24.8888 40.3212L25.0433 41.0552L24.8888 40.3212ZM16.6112 40.3212L16.4568 41.0552L16.6112 40.3212ZM2.22722 13.1924L1.5329 12.9088V12.9088L2.22722 13.1924ZM1.17876 24.8888L0.444835 25.0432L1.17876 24.8888ZM16.6112 1.17876L16.4568 0.444836L16.6112 1.17876ZM24.8888 1.17877L25.0433 0.444838L24.8888 1.17877ZM39.1117 13.2646L38.894 12.5468L39.1117 13.2646ZM2.38593 13.2638L2.16823 13.9815L2.38593 13.2638ZM39.275 13.1979L38.5806 13.4812C39.4955 15.723 40 18.1767 40 20.75H40.75H41.5C41.5 17.979 40.9564 15.3331 39.9694 12.9145L39.275 13.1979ZM40.75 20.75H40C40 22.1168 39.8577 23.4495 39.5873 24.7344L40.3212 24.8888L41.0552 25.0432C41.3468 23.6574 41.5 22.2212 41.5 20.75H40.75ZM40.3212 24.8888L39.5873 24.7344C38.0232 32.1677 32.1678 38.0232 24.7344 39.5873L24.8888 40.3212L25.0433 41.0552C33.0585 39.3686 39.3686 33.0585 41.0552 25.0432L40.3212 24.8888ZM24.8888 40.3212L24.7344 39.5873C23.4495 39.8577 22.1168 40 20.75 40V40.75V41.5C22.2212 41.5 23.6574 41.3468 25.0433 41.0552L24.8888 40.3212ZM20.75 40.75V40C19.3832 40 18.0505 39.8577 16.7656 39.5873L16.6112 40.3212L16.4568 41.0552C17.8426 41.3468 19.2788 41.5 20.75 41.5V40.75ZM0.75 20.75H1.5C1.5 18.1746 2.00533 15.7192 2.92154 13.476L2.22722 13.1924L1.5329 12.9088C0.544415 15.329 0 17.9768 0 20.75H0.75ZM16.6112 40.3212L16.7656 39.5873C9.33225 38.0232 3.47682 32.1677 1.91269 24.7344L1.17876 24.8888L0.444835 25.0432C2.13141 33.0585 8.44148 39.3686 16.4568 41.0552L16.6112 40.3212ZM1.17876 24.8888L1.91269 24.7344C1.64232 23.4495 1.5 22.1168 1.5 20.75H0.75H0C0 22.2212 0.153221 23.6574 0.444835 25.0432L1.17876 24.8888ZM2.22722 13.1924L2.92154 13.476C5.30479 7.64091 10.47 3.23743 16.7656 1.91269L16.6112 1.17876L16.4568 0.444836C9.66647 1.87365 4.10141 6.62017 1.5329 12.9088L2.22722 13.1924ZM16.6112 1.17876L16.7656 1.91269C18.0505 1.64232 19.3832 1.5 20.75 1.5V0.75V0C19.2788 0 17.8426 0.153222 16.4568 0.444836L16.6112 1.17876ZM20.75 0.75V1.5C22.1168 1.5 23.4495 1.64232 24.7344 1.91269L24.8888 1.17877L25.0433 0.444838C23.6574 0.153222 22.2212 0 20.75 0V0.75ZM24.8888 1.17877L24.7344 1.91269C31.0319 3.23783 36.1983 7.64357 38.5806 13.4812L39.275 13.1979L39.9694 12.9145C37.4019 6.62302 31.8356 1.87408 25.0433 0.444838L24.8888 1.17877ZM24.8888 1.17877L24.1743 1.40675C24.7282 3.14272 26.7882 9.84631 27.6347 16.0259L28.3778 15.9241L29.1209 15.8223C28.2557 9.50674 26.1614 2.69967 25.6033 0.950782L24.8888 1.17877ZM28.3778 15.9241L27.6347 16.0259C27.8621 17.6855 28 19.2942 28 20.75H28.75H29.5C29.5 19.2055 29.3541 17.5253 29.1209 15.8223L28.3778 15.9241ZM39.1117 13.2646L38.894 12.5468C36.6872 13.2162 32.5343 14.3943 28.2417 15.1866L28.3778 15.9241L28.5139 16.6617C32.8856 15.8548 37.0988 14.6588 39.3294 13.9823L39.1117 13.2646ZM28.3778 15.9241L28.2417 15.1866C25.6406 15.6666 23.0141 16 20.75 16V16.75V17.5C23.1437 17.5 25.8707 17.1495 28.5139 16.6617L28.3778 15.9241ZM28.75 20.75H28C28 22.9031 27.6985 25.3848 27.2556 27.8619L27.9939 27.9939L28.7322 28.1259C29.1827 25.606 29.5 23.0275 29.5 20.75H28.75ZM27.9939 27.9939L27.2556 27.8619C26.2845 33.2933 24.6558 38.5842 24.1743 40.0932L24.8888 40.3212L25.6033 40.5492C26.0911 39.0205 27.7435 33.6553 28.7322 28.1259L27.9939 27.9939ZM40.3212 24.8888L40.0933 24.1743C38.5842 24.6558 33.2933 26.2845 27.8619 27.2556L27.9939 27.9939L28.1259 28.7322C33.6553 27.7435 39.0205 26.0911 40.5492 25.6033L40.3212 24.8888ZM27.9939 27.9939L27.8619 27.2556C25.3848 27.6985 22.9031 28 20.75 28V28.75V29.5C23.0275 29.5 25.606 29.1827 28.1259 28.7322L27.9939 27.9939ZM20.75 28.75V28C18.5969 28 16.1152 27.6985 13.6381 27.2556L13.5061 27.9939L13.3741 28.7322C15.894 29.1827 18.4725 29.5 20.75 29.5V28.75ZM13.5061 27.9939L13.6381 27.2556C8.20672 26.2845 2.91579 24.6558 1.40675 24.1743L1.17876 24.8888L0.950779 25.6033C2.47951 26.0911 7.84469 27.7435 13.3741 28.7322L13.5061 27.9939ZM12.75 20.75H12C12 23.0275 12.3173 25.606 12.7678 28.1259L13.5061 27.9939L14.2444 27.8619C13.8015 25.3848 13.5 22.9031 13.5 20.75H12.75ZM13.5061 27.9939L12.7678 28.1259C13.7565 33.6553 15.4089 39.0205 15.8967 40.5492L16.6112 40.3212L17.3257 40.0933C16.8442 38.5842 15.2155 33.2933 14.2444 27.8619L13.5061 27.9939ZM16.6112 1.17876L15.8967 0.95078C15.3386 2.69967 13.2443 9.50674 12.3791 15.8223L13.1222 15.9241L13.8653 16.0259C14.7118 9.84631 16.7718 3.14272 17.3257 1.40675L16.6112 1.17876ZM13.1222 15.9241L12.3791 15.8223C12.1459 17.5253 12 19.2055 12 20.75H12.75H13.5C13.5 19.2942 13.6379 17.6855 13.8653 16.0259L13.1222 15.9241ZM20.75 16.75V16C18.4859 16 15.8594 15.6666 13.2583 15.1866L13.1222 15.9241L12.9861 16.6617C15.6293 17.1495 18.3563 17.5 20.75 17.5V16.75ZM13.1222 15.9241L13.2583 15.1866C8.96415 14.3941 4.80986 13.2153 2.60364 12.5461L2.38593 13.2638L2.16823 13.9815C4.39815 14.6579 8.61286 15.8545 12.9861 16.6617L13.1222 15.9241ZM39.275 13.1979L38.9294 12.5322C38.9163 12.539 38.9053 12.5434 38.894 12.5468L39.1117 13.2646L39.3294 13.9823C39.4318 13.9512 39.5283 13.9114 39.6206 13.8635L39.275 13.1979ZM2.22722 13.1924L1.83592 13.8322C1.9387 13.8951 2.04926 13.9455 2.16823 13.9815L2.38593 13.2638L2.60364 12.5461C2.60634 12.5469 2.60945 12.5481 2.61258 12.5495C2.61568 12.5509 2.61773 12.5521 2.61851 12.5526L2.22722 13.1924Z" fill="#0061FF"/>
</svg>
