<svg width="40" height="40" viewBox="0 0 40 40" fill="none" xmlns="http://www.w3.org/2000/svg">
<path d="M28.3333 33.3332C30.1743 33.3332 31.6667 31.8408 31.6667 29.9998C31.6667 28.1589 30.1743 26.6665 28.3333 26.6665C26.4924 26.6665 25 28.1589 25 29.9998C25 31.8408 26.4924 33.3332 28.3333 33.3332Z" stroke="#0061FF" stroke-width="1.5"/>
<path d="M11.6654 33.3332C13.5063 33.3332 14.9987 31.8408 14.9987 29.9998C14.9987 28.1589 13.5063 26.6665 11.6654 26.6665C9.82442 26.6665 8.33203 28.1589 8.33203 29.9998C8.33203 31.8408 9.82442 33.3332 11.6654 33.3332Z" stroke="#0061FF" stroke-width="1.5"/>
<path d="M18.332 28.3332H24.9987M22.4987 11.6665H24.0702C26.2542 11.6665 27.3464 11.6665 28.2722 12.1907C29.198 12.7149 29.8154 13.6827 31.05 15.6183C31.9157 16.9755 32.8245 17.9607 34.1024 18.8372C35.3889 19.7195 36.0007 20.1508 36.3402 20.8432C36.6654 21.5062 36.6654 22.2915 36.6654 23.862C36.6654 25.9325 36.6654 26.9678 36.0837 27.6257C36.0587 27.654 36.0332 27.6815 36.0069 27.7082C35.3945 28.3332 34.431 28.3332 32.5037 28.3332H31.6654" stroke="#0061FF" stroke-width="1.5" stroke-linecap="round" stroke-linejoin="round"/>
<path d="M21.668 11.6665L23.325 15.8091C24.1368 17.8388 24.5428 18.8537 25.3893 19.4267C26.2358 19.9998 27.3288 19.9998 29.5148 19.9998H35.0013" stroke="#0061FF" stroke-width="1.5" stroke-linecap="round" stroke-linejoin="round"/>
<path d="M8.11465 28.3332C5.8601 28.3332 4.73283 28.3332 4.03243 27.601C3.33203 26.8687 3.33203 25.6902 3.33203 23.3332V11.6665C3.33203 9.30949 3.33203 8.13097 4.03243 7.39874C4.73283 6.6665 5.8601 6.6665 8.11465 6.6665H16.8827C19.1374 6.6665 20.2645 6.6665 20.965 7.39874C21.6654 8.13097 21.6654 9.30949 21.6654 11.6665V28.3332H14.4914" stroke="#0061FF" stroke-width="1.5" stroke-linecap="round" stroke-linejoin="round"/>
</svg>
