<svg width="40" height="40" viewBox="0 0 40 40" fill="none" xmlns="http://www.w3.org/2000/svg">
<path d="M34.9045 28.0588C33.8107 21.4775 30.4053 16.5767 27.445 13.6982C26.5835 12.8605 26.1528 12.4417 25.2013 12.0541C24.2498 11.6665 23.432 11.6665 21.7963 11.6665H18.2037C16.568 11.6665 15.7502 11.6665 14.7987 12.0541C13.8472 12.4417 13.4165 12.8605 12.5551 13.6982C9.5947 16.5767 6.18935 21.4775 5.09545 28.0588C4.28155 32.9555 8.79878 36.6665 13.8472 36.6665H26.1528C31.2012 36.6665 35.7185 32.9555 34.9045 28.0588Z" stroke="#4D4D4D" stroke-width="1.5" stroke-linecap="round"/>
<path d="M16.875 29.1665V19.1665M20 19.1665V16.6665M20 31.6665V29.1665M16.875 24.1665H23.125M23.125 24.1665C24.1605 24.1665 25 25.006 25 26.0415V27.2915C25 28.327 24.1605 29.1665 23.125 29.1665H15M23.125 24.1665C24.1605 24.1665 25 23.327 25 22.2915V21.0415C25 20.006 24.1605 19.1665 23.125 19.1665H15" stroke="#4D4D4D" stroke-width="1.5" stroke-linecap="round" stroke-linejoin="round"/>
<path d="M12.0957 7.40495C11.7518 6.90446 11.2534 6.22515 12.283 6.07025C13.3412 5.91101 14.44 6.6354 15.5156 6.62051C16.4886 6.60705 16.9843 6.17548 17.5161 5.5593C18.0761 4.91045 18.9433 3.3335 20.0013 3.3335C21.0593 3.3335 21.9265 4.91045 22.4865 5.5593C23.0183 6.17548 23.514 6.60705 24.487 6.62051C25.5626 6.6354 26.6615 5.91101 27.7196 6.07025C28.7491 6.22515 28.2508 6.90446 27.907 7.40495L26.3521 9.6679C25.6871 10.6359 25.3546 11.1199 24.6586 11.3934C23.9628 11.6668 23.0635 11.6668 21.265 11.6668H18.7376C16.9391 11.6668 16.0398 11.6668 15.3439 11.3934C14.648 11.1199 14.3155 10.6359 13.6504 9.6679L12.0957 7.40495Z" stroke="#4D4D4D" stroke-width="1.5"/>
</svg>
