<svg width="40" height="40" viewBox="0 0 40 40" fill="none" xmlns="http://www.w3.org/2000/svg">
<path d="M28.332 19.674C28.332 19.0978 28.332 18.8098 28.4187 18.5532C28.6707 17.8072 29.335 17.5178 30.0005 17.2147C30.7487 16.8738 31.1227 16.7035 31.4934 16.6735C31.9142 16.6395 32.3357 16.7302 32.6954 16.932C33.1722 17.1995 33.5047 17.708 33.8452 18.1215C35.4175 20.0312 36.2035 20.9862 36.4912 22.0392C36.7234 22.8888 36.7234 23.7775 36.4912 24.6272C36.0717 26.163 34.7462 27.4505 33.765 28.6422C33.2632 29.2517 33.0122 29.5565 32.6954 29.7343C32.3357 29.9362 31.9142 30.0268 31.4934 29.9928C31.1227 29.9628 30.7487 29.7925 30.0005 29.4517C29.335 29.1485 28.6707 28.8592 28.4187 28.1132C28.332 27.8565 28.332 27.5685 28.332 26.9923V19.674Z" stroke="#4D4D4D" stroke-width="1.5"/>
<path d="M11.6654 19.6741C11.6654 18.9488 11.645 18.2968 11.0585 17.7868C10.8452 17.6013 10.5624 17.4725 9.99688 17.2148C9.24871 16.8741 8.87463 16.7038 8.50396 16.6738C7.39188 16.5838 6.79356 17.3428 6.15225 18.1218C4.57995 20.0315 3.7938 20.9863 3.50613 22.0393C3.274 22.8891 3.274 23.7778 3.50613 24.6275C3.9257 26.1633 5.25123 27.4506 6.23238 28.6425C6.85085 29.3936 7.44165 30.079 8.50396 29.9931C8.87463 29.9631 9.24871 29.7926 9.99688 29.452C10.5624 29.1943 10.8452 29.0655 11.0585 28.88C11.645 28.37 11.6654 27.7181 11.6654 26.9926V19.6741Z" stroke="#4D4D4D" stroke-width="1.5"/>
<path d="M33.3346 17.5002V15.0002C33.3346 8.55685 27.3651 3.3335 20.0013 3.3335C12.6375 3.3335 6.66797 8.55685 6.66797 15.0002V17.5002" stroke="#4D4D4D" stroke-width="1.5" stroke-linecap="round" stroke-linejoin="round"/>
<path d="M33.3333 29.1665C33.3333 36.6665 26.6667 36.6665 20 36.6665" stroke="#4D4D4D" stroke-width="1.5" stroke-linecap="round" stroke-linejoin="round"/>
</svg>
