<svg width="40" height="40" viewBox="0 0 40 40" fill="none" xmlns="http://www.w3.org/2000/svg">
<path d="M28.3333 33.3332C30.1743 33.3332 31.6667 31.8408 31.6667 29.9998C31.6667 28.1588 30.1743 26.6665 28.3333 26.6665C26.4923 26.6665 25 28.1588 25 29.9998C25 31.8408 26.4923 33.3332 28.3333 33.3332Z" stroke="#4D4D4D" stroke-width="1.5"/>
<path d="M11.6654 33.3332C13.5063 33.3332 14.9987 31.8408 14.9987 29.9998C14.9987 28.1588 13.5063 26.6665 11.6654 26.6665C9.82441 26.6665 8.33203 28.1588 8.33203 29.9998C8.33203 31.8408 9.82441 33.3332 11.6654 33.3332Z" stroke="#4D4D4D" stroke-width="1.5"/>
<path d="M31.6654 18.3332H36.6654V21.6665C36.6654 25.5948 36.6654 27.559 35.445 28.7795C34.6335 29.5908 33.4932 29.8628 31.6654 29.9538M8.33203 29.9538C6.50416 29.8628 5.36386 29.5908 4.55241 28.7795C3.33203 27.559 3.33203 25.5948 3.33203 21.6665V14.9998C3.33203 11.0715 3.33203 9.10729 4.55241 7.88689C5.77281 6.6665 7.737 6.6665 11.6654 6.6665H17.1654C19.0267 6.6665 19.9574 6.6665 20.7105 6.91122C22.2327 7.4058 23.426 8.59924 23.9207 10.1214C24.1654 10.8746 24.1654 11.8052 24.1654 13.6665C24.1654 15.7012 24.1654 16.7185 23.6082 17.4065C23.4984 17.5422 23.3744 17.6662 23.2387 17.776C22.5507 18.3332 21.5334 18.3332 19.4987 18.3332H13.332M24.9987 29.9998H14.9987" stroke="#4D4D4D" stroke-width="1.5" stroke-linecap="round" stroke-linejoin="round"/>
<path d="M24.168 10H27.2033C29.629 10 30.8416 10 31.8286 10.5895C32.8156 11.179 33.3906 12.2469 34.5406 14.3825L36.668 18.3333" stroke="#4D4D4D" stroke-width="1.5" stroke-linecap="round" stroke-linejoin="round"/>
<path d="M16.6654 21.6667C16.6654 21.6667 15.5452 20.7393 14.5608 19.8602C13.8649 19.3005 13.332 18.821 13.332 18.3413C13.332 17.9163 13.7478 17.5213 14.425 16.9025C15.3852 16.1031 16.6654 15 16.6654 15" stroke="#4D4D4D" stroke-width="1.5" stroke-linecap="round" stroke-linejoin="round"/>
</svg>
