<svg width="40" height="40" viewBox="0 0 40 40" fill="none" xmlns="http://www.w3.org/2000/svg">
<path d="M25.4835 24.4615C25.2388 24.3815 23.6927 23.6846 24.6588 20.7477H24.645C27.1635 18.1538 29.0881 13.98 29.0881 9.87076C29.0881 3.5523 24.8865 0.23999 20.0035 0.23999C15.1173 0.23999 10.9388 3.55076 10.9388 9.87076C10.9388 13.9969 12.8527 18.1877 15.3865 20.7754C16.3742 23.3661 14.6081 24.3277 14.2388 24.4631C9.125 26.3123 3.125 29.6831 3.125 33.0108V34.2585C3.125 38.7923 11.9158 39.8231 20.0512 39.8231C28.1988 39.8231 36.8788 38.7923 36.8788 34.2585V33.0108C36.8788 29.5831 30.8496 26.2385 25.4835 24.4615Z" fill="#0061FF"/>
</svg>
