<svg width="40" height="40" viewBox="0 0 40 40" fill="none" xmlns="http://www.w3.org/2000/svg">
<path d="M31.6654 10.8334H26.6654V9.16675C26.6654 7.84067 26.1386 6.5689 25.2009 5.63121C24.2632 4.69353 22.9914 4.16675 21.6654 4.16675H18.332C17.0059 4.16675 15.7342 4.69353 14.7965 5.63121C13.8588 6.5689 13.332 7.84067 13.332 9.16675V10.8334H8.33203C7.00595 10.8334 5.73418 11.3602 4.7965 12.2979C3.85882 13.2356 3.33203 14.5073 3.33203 15.8334V30.8334C3.33203 32.1595 3.85882 33.4313 4.7965 34.3689C5.73418 35.3066 7.00595 35.8334 8.33203 35.8334H31.6654C32.9914 35.8334 34.2632 35.3066 35.2009 34.3689C36.1386 33.4313 36.6654 32.1595 36.6654 30.8334V15.8334C36.6654 14.5073 36.1386 13.2356 35.2009 12.2979C34.2632 11.3602 32.9914 10.8334 31.6654 10.8334ZM16.6654 9.16675C16.6654 8.72472 16.841 8.3008 17.1535 7.98824C17.4661 7.67568 17.89 7.50008 18.332 7.50008H21.6654C22.1074 7.50008 22.5313 7.67568 22.8439 7.98824C23.1564 8.3008 23.332 8.72472 23.332 9.16675V10.8334H16.6654V9.16675ZM33.332 30.8334C33.332 31.2754 33.1564 31.6994 32.8439 32.0119C32.5313 32.3245 32.1074 32.5001 31.6654 32.5001H8.33203C7.89 32.5001 7.46608 32.3245 7.15352 32.0119C6.84096 31.6994 6.66536 31.2754 6.66536 30.8334V21.6667C10.909 23.3507 15.4331 24.2159 19.9987 24.2167C24.5639 24.2119 29.0873 23.3468 33.332 21.6667V30.8334ZM33.332 18.0167C29.1291 19.862 24.5889 20.8148 19.9987 20.8148C15.4085 20.8148 10.8683 19.862 6.66536 18.0167V15.8334C6.66536 15.3914 6.84096 14.9675 7.15352 14.6549C7.46608 14.3423 7.89 14.1667 8.33203 14.1667H31.6654C32.1074 14.1667 32.5313 14.3423 32.8439 14.6549C33.1564 14.9675 33.332 15.3914 33.332 15.8334V18.0167Z" fill="#0061FF"/>
</svg>
