<svg width="48" height="48" viewBox="0 0 48 48" fill="none" xmlns="http://www.w3.org/2000/svg">
<path d="M12.1788 29.9985C11.4219 28.2973 11 26.4047 11 24.4103C11 17.0032 16.8203 10.9985 24 10.9985C31.1798 10.9985 37 17.0032 37 24.4103C37 26.4047 36.578 28.2973 35.8212 29.9985" stroke="#0061FF" stroke-width="3" stroke-linecap="round"/>
<path d="M24 3.99854V5.99853" stroke="#0061FF" stroke-width="3" stroke-linecap="round" stroke-linejoin="round"/>
<path d="M44 23.9983H42" stroke="#0061FF" stroke-width="3" stroke-linecap="round" stroke-linejoin="round"/>
<path d="M6 23.9983H4" stroke="#0061FF" stroke-width="3" stroke-linecap="round" stroke-linejoin="round"/>
<path d="M38.1408 9.85596L36.7266 11.2702" stroke="#0061FF" stroke-width="3" stroke-linecap="round" stroke-linejoin="round"/>
<path d="M11.2736 11.2719L9.85938 9.85767" stroke="#0061FF" stroke-width="3" stroke-linecap="round" stroke-linejoin="round"/>
<path d="M29.035 38.6111C31.0558 37.9575 31.8662 36.1079 32.0942 34.2475C32.1622 33.6917 31.705 33.2307 31.145 33.2307L16.9547 33.2311C16.3755 33.2311 15.9103 33.7227 15.9795 34.2977C16.2028 36.1545 16.7664 37.5109 18.9079 38.6111M29.035 38.6111C29.035 38.6111 19.2604 38.6111 18.9079 38.6111M29.035 38.6111C28.792 42.5011 27.6686 44.0417 24.0146 43.9985C20.1062 44.0707 19.207 42.1665 18.9079 38.6111" stroke="#0061FF" stroke-width="3" stroke-linecap="round" stroke-linejoin="round"/>
</svg>
