<svg width="48" height="48" viewBox="0 0 48 48" fill="none" xmlns="http://www.w3.org/2000/svg">
<path fill-rule="evenodd" clip-rule="evenodd" d="M24 8C19.8579 8 16.5 11.3579 16.5 15.5C16.5 19.6421 19.8579 23 24 23C28.1421 23 31.5 19.6421 31.5 15.5C31.5 11.3579 28.1421 8 24 8ZM19.5 15.5C19.5 13.0147 21.5147 11 24 11C26.4853 11 28.5 13.0147 28.5 15.5C28.5 17.9853 26.4853 20 24 20C21.5147 20 19.5 17.9853 19.5 15.5Z" fill="#0061FF"/>
<path fill-rule="evenodd" clip-rule="evenodd" d="M18 26C13.8579 26 10.5 29.3579 10.5 33.5C10.5 37.6421 13.8579 41 18 41H30C34.1421 41 37.5 37.6421 37.5 33.5C37.5 29.3579 34.1421 26 30 26H18ZM13.5 33.5C13.5 31.0147 15.5147 29 18 29H30C32.4853 29 34.5 31.0147 34.5 33.5C34.5 35.9853 32.4853 38 30 38H18C15.5147 38 13.5 35.9853 13.5 33.5Z" fill="#0061FF"/>
<path d="M15.5043 20.7773C15.1888 20.2705 14.5969 20 14 20C11.5147 20 9.5 17.9853 9.5 15.5C9.5 13.0147 11.5147 11 14 11C14.5969 11 15.1888 10.7295 15.5043 10.2227C15.5182 10.2003 15.5323 10.1779 15.5464 10.1556C16.0716 9.32662 15.8055 8.1528 14.83 8.04541C14.5575 8.0154 14.2805 8 14 8C9.85786 8 6.5 11.3579 6.5 15.5C6.5 19.6421 9.85786 23 14 23C14.2805 23 14.5575 22.9846 14.83 22.9546C15.8055 22.8472 16.0716 21.6734 15.5464 20.8444C15.5323 20.8221 15.5182 20.7997 15.5043 20.7773Z" fill="#0061FF"/>
<path d="M9.41658 36.6337C9.18954 36.255 8.78879 36 8.34717 36H8C5.51472 36 3.5 33.9853 3.5 31.5C3.5 29.0147 5.51472 27 8 27H8.34717C8.78879 27 9.18954 26.745 9.41658 26.3663C9.97078 25.4416 9.36937 24 8.29138 24H8C3.85786 24 0.5 27.3579 0.5 31.5C0.5 35.6421 3.85786 39 8 39H8.29138C9.36937 39 9.97078 37.5584 9.41658 36.6337Z" fill="#0061FF"/>
<path d="M32.4536 20.8444C31.9284 21.6734 32.1945 22.8472 33.17 22.9546C33.4425 22.9846 33.7195 23 34 23C38.1421 23 41.5 19.6421 41.5 15.5C41.5 11.3579 38.1421 8 34 8C33.7195 8 33.4425 8.0154 33.17 8.04541C32.1945 8.1528 31.9284 9.32661 32.4536 10.1556C32.4677 10.1779 32.4818 10.2003 32.4957 10.2227C32.8112 10.7294 33.4031 11 34 11C36.4853 11 38.5 13.0147 38.5 15.5C38.5 17.9853 36.4853 20 34 20C33.4031 20 32.8112 20.2705 32.4957 20.7773C32.4818 20.7997 32.4677 20.8221 32.4536 20.8444Z" fill="#0061FF"/>
<path d="M38.5834 36.6337C38.0292 37.5584 38.6306 39 39.7086 39H40C44.1421 39 47.5 35.6421 47.5 31.5C47.5 27.3579 44.1421 24 40 24H39.7086C38.6306 24 38.0292 25.4416 38.5834 26.3663C38.8105 26.745 39.2112 27 39.6528 27H40C42.4853 27 44.5 29.0147 44.5 31.5C44.5 33.9853 42.4853 36 40 36H39.6528C39.2112 36 38.8105 36.255 38.5834 36.6337Z" fill="#0061FF"/>
</svg>
