<svg width="48" height="48" viewBox="0 0 48 48" fill="none" xmlns="http://www.w3.org/2000/svg">
<path d="M34 24C34 29.5228 29.5228 34 24 34C18.4772 34 14 29.5228 14 24C14 18.4772 18.4772 14 24 14" stroke="#0061FF" stroke-width="3" stroke-linecap="round"/>
<path d="M28 4.40008C26.7076 4.13772 25.3698 4 24 4C12.9543 4 4 12.9543 4 24C4 35.0456 12.9543 44 24 44C35.0456 44 44 35.0456 44 24C44 22.6302 43.8622 21.2924 43.6 20" stroke="#0061FF" stroke-width="3" stroke-linecap="round"/>
<path d="M24.0625 23.925L33.1683 14.8192M39.4827 8.68927L38.3763 4.71499C38.1725 4.06025 37.3847 3.79933 36.8537 4.23327C33.9815 6.58039 30.8527 9.74185 33.4079 14.7284C38.5561 17.1291 41.4951 13.8917 43.7485 11.1706C44.1969 10.6292 43.9265 9.81537 43.2513 9.62013L39.4827 8.68927Z" stroke="#0061FF" stroke-width="3" stroke-linecap="round" stroke-linejoin="round"/>
</svg>
