<svg width="40" height="40" viewBox="0 0 40 40" fill="none" xmlns="http://www.w3.org/2000/svg">
<path d="M28.3346 20.0001C28.3346 24.6024 24.6036 28.3334 20.0013 28.3334C15.3989 28.3334 11.668 24.6024 11.668 20.0001C11.668 15.3977 15.3989 11.6667 20.0013 11.6667" stroke="#013AAD" stroke-width="2.5" stroke-linecap="round"/>
<path d="M23.332 3.66665C22.255 3.44802 21.1402 3.33325 19.9987 3.33325C10.7939 3.33325 3.33203 10.7952 3.33203 19.9999C3.33203 29.2046 10.7939 36.6666 19.9987 36.6666C29.2034 36.6666 36.6654 29.2046 36.6654 19.9999C36.6654 18.8584 36.5505 17.7436 36.332 16.6666" stroke="#013AAD" stroke-width="2.5" stroke-linecap="round"/>
<path d="M20.0508 19.9376L27.6389 12.3494M32.9009 7.2411L31.9789 3.9292C31.8091 3.38358 31.1526 3.16615 30.7101 3.52776C28.3166 5.4837 25.7093 8.11825 27.8386 12.2737C32.1288 14.2743 34.5779 11.5765 36.4558 9.3089C36.8294 8.85773 36.6041 8.17951 36.0414 8.01681L32.9009 7.2411Z" stroke="#013AAD" stroke-width="2.5" stroke-linecap="round" stroke-linejoin="round"/>
</svg>
