<svg width="40" height="40" viewBox="0 0 40 40" fill="none" xmlns="http://www.w3.org/2000/svg">
<path d="M35.9054 18.4083C36.412 19.1188 36.6654 19.4741 36.6654 19.9999C36.6654 20.5258 36.412 20.8811 35.9054 21.5916C33.6285 24.7843 27.814 31.6666 19.9987 31.6666C12.1833 31.6666 6.36886 24.7843 4.0921 21.5916C3.58538 20.8811 3.33203 20.5258 3.33203 19.9999C3.33203 19.4741 3.58538 19.1188 4.0921 18.4083C6.36886 15.2157 12.1833 8.33325 19.9987 8.33325C27.814 8.33325 33.6285 15.2157 35.9054 18.4083Z" stroke="#078F1A" stroke-width="2.5"/>
<path d="M25 20C25 17.2385 22.7615 15 20 15C17.2385 15 15 17.2385 15 20C15 22.7615 17.2385 25 20 25C22.7615 25 25 22.7615 25 20Z" stroke="#078F1A" stroke-width="2.5"/>
</svg>
