<svg width="40" height="40" viewBox="0 0 40 40" fill="none" xmlns="http://www.w3.org/2000/svg">
<path d="M23.332 36.6667H26.6654M23.332 36.6667C21.9514 36.6667 20.832 35.5473 20.832 34.1667V30H19.9987M23.332 36.6667H16.6654M19.9987 30H19.1654V34.1667C19.1654 35.5473 18.046 36.6667 16.6654 36.6667M19.9987 30V36.6667M16.6654 36.6667H13.332" stroke="#0061FF" stroke-width="2.5" stroke-linecap="round" stroke-linejoin="round"/>
<path d="M18.332 6.6665H13.332C8.61798 6.6665 6.26096 6.6665 4.7965 8.13097C3.33203 9.59544 3.33203 11.9525 3.33203 16.6665V19.9998C3.33203 24.7138 3.33203 27.0708 4.7965 28.5353C6.26096 29.9998 8.61798 29.9998 13.332 29.9998H26.6654C31.3794 29.9998 33.7364 29.9998 35.2009 28.5353C36.4815 27.2547 36.6424 25.2915 36.6625 21.6665" stroke="#0061FF" stroke-width="2.5" stroke-linecap="round" stroke-linejoin="round"/>
<path d="M36.6667 9.36754V6.08233C36.6667 5.56566 36.2872 5.13684 35.795 5.04884C33.8115 4.69421 32.165 3.90531 31.3617 3.46786C31.0328 3.28871 30.6338 3.28871 30.305 3.46786C29.5017 3.90531 27.8552 4.69421 25.8717 5.04884C25.3795 5.13684 25 5.56566 25 6.08233V9.36754C25 13.6532 29.2373 15.9908 30.4892 16.5878C30.71 16.6932 30.9567 16.6932 31.1775 16.5878C32.4293 15.9908 36.6667 13.6532 36.6667 9.36754Z" stroke="#0061FF" stroke-width="2.5" stroke-linecap="round" stroke-linejoin="round"/>
</svg>
