<svg width="40" height="40" viewBox="0 0 40 40" fill="none" xmlns="http://www.w3.org/2000/svg">
<path fill-rule="evenodd" clip-rule="evenodd" d="M13.7514 10.0252V8.3335C13.7514 6.67589 14.4099 5.08618 15.582 3.91408C16.7541 2.74198 18.3438 2.0835 20.0014 2.0835C21.659 2.0835 23.2488 2.74198 24.4209 3.91408C25.593 5.08618 26.2514 6.67589 26.2514 8.3335V10.0252C28.3964 10.0902 29.7098 10.3202 30.7114 11.1518C32.0998 12.3052 32.4664 14.2552 33.1981 18.1568L34.4481 24.8235C35.4764 30.3102 35.9898 33.0535 34.4914 34.8602C32.9914 36.6668 30.1998 36.6668 24.6181 36.6668H15.3848C9.80144 36.6668 7.01144 36.6668 5.51144 34.8602C4.01144 33.0535 4.52811 30.3102 5.55478 24.8235L6.80478 18.1568C7.53811 14.2568 7.90311 12.3052 9.29144 11.1518C10.2931 10.3202 11.6064 10.0902 13.7514 10.0252ZM16.2514 8.3335C16.2514 7.33893 16.6465 6.38511 17.3498 5.68185C18.0531 4.97858 19.0069 4.5835 20.0014 4.5835C20.996 4.5835 21.9498 4.97858 22.6531 5.68185C23.3564 6.38511 23.7514 7.33893 23.7514 8.3335V10.0002H16.2514V8.3335Z" fill="#3870FF"/>
</svg>
