<svg width="40" height="40" viewBox="0 0 40 40" fill="none" xmlns="http://www.w3.org/2000/svg">
<path d="M17.5 33.75C17.5 34.4403 16.9403 35 16.25 35C15.5597 35 15 34.4403 15 33.75C15 33.0597 15.5597 32.5 16.25 32.5C16.9403 32.5 17.5 33.0597 17.5 33.75Z" stroke="#0061FF" stroke-width="2.5" stroke-linecap="round" stroke-linejoin="round"/>
<path d="M31.668 33.75C31.668 34.4403 31.1083 35 30.418 35C29.7276 35 29.168 34.4403 29.168 33.75C29.168 33.0597 29.7276 32.5 30.418 32.5C31.1083 32.5 31.668 33.0597 31.668 33.75Z" stroke="#0061FF" stroke-width="2.5" stroke-linecap="round" stroke-linejoin="round"/>
<path d="M3.33203 5H3.67643C5.8841 5 6.98793 5 7.70786 5.67035C8.4278 6.34068 8.50643 7.44172 8.66373 9.64377L9.08261 15.5083C9.31936 18.8227 9.43773 20.4798 9.93996 21.8268C11.0409 24.7795 13.4692 27.0407 16.4928 27.9283C17.8722 28.3333 19.5432 28.3333 22.8849 28.3333C26.3942 28.3333 28.1869 28.3232 29.6064 27.8925C32.8024 26.923 35.3034 24.422 36.2729 21.226C36.5115 20.439 36.618 19.552 36.6654 18.3232M22.4987 10H9.16536" stroke="#0061FF" stroke-width="2.5" stroke-linecap="round" stroke-linejoin="round"/>
<path d="M36.6654 10.8334C36.6654 10.8334 33.5967 15 32.4987 15C31.4007 15 28.332 10.8333 28.332 10.8333M32.4987 13.3333V5" stroke="#0061FF" stroke-width="2.5" stroke-linecap="round" stroke-linejoin="round"/>
</svg>
