<svg width="40" height="40" viewBox="0 0 40 40" fill="none" xmlns="http://www.w3.org/2000/svg">
<path d="M19.9986 28.7918L13.0819 32.9585C12.7764 33.1529 12.4569 33.2363 12.1236 33.2085C11.7903 33.1807 11.4986 33.0696 11.2486 32.8752C10.9986 32.6807 10.8042 32.4379 10.6653 32.1468C10.5264 31.8557 10.4986 31.5291 10.5819 31.1668L12.4153 23.2918L6.29026 18.0002C6.01248 17.7502 5.83915 17.4652 5.77026 17.1452C5.70137 16.8252 5.72193 16.5129 5.83193 16.2085C5.94193 15.9041 6.10859 15.6541 6.33193 15.4585C6.55526 15.2629 6.86082 15.1379 7.24859 15.0835L15.3319 14.3752L18.4569 6.9585C18.5958 6.62516 18.8114 6.37516 19.1036 6.2085C19.3958 6.04183 19.6942 5.9585 19.9986 5.9585C20.303 5.9585 20.6014 6.04183 20.8936 6.2085C21.1858 6.37516 21.4014 6.62516 21.5403 6.9585L24.6653 14.3752L32.7486 15.0835C33.1375 15.1391 33.443 15.2641 33.6653 15.4585C33.8875 15.6529 34.0541 15.9029 34.1653 16.2085C34.2764 16.5141 34.2975 16.8268 34.2286 17.1468C34.1597 17.4668 33.9858 17.7513 33.7069 18.0002L27.5819 23.2918L29.4153 31.1668C29.4986 31.5279 29.4708 31.8546 29.3319 32.1468C29.193 32.4391 28.9986 32.6818 28.7486 32.8752C28.4986 33.0685 28.2069 33.1796 27.8736 33.2085C27.5403 33.2374 27.2208 33.1541 26.9153 32.9585L19.9986 28.7918Z" fill="#3870FF"/>
</svg>
