<svg width="40" height="40" viewBox="0 0 40 40" fill="none" xmlns="http://www.w3.org/2000/svg">
<path d="M3.33203 7.5H14.5943C15.9204 7.5 17.1922 8.02678 18.1299 8.96447L23.332 14.1667" stroke="#4D4D4D" stroke-width="1.5" stroke-linecap="round" stroke-linejoin="round"/>
<path d="M8.33203 22.5H3.33203" stroke="#4D4D4D" stroke-width="1.5" stroke-linecap="round" stroke-linejoin="round"/>
<path d="M14.1654 12.5L17.4987 15.8333C18.4192 16.7538 18.4192 18.2462 17.4987 19.1667C16.5782 20.0872 15.0858 20.0872 14.1654 19.1667L11.6654 16.6667C10.2309 18.1012 7.95988 18.2625 6.33693 17.0453L5.83203 16.6667" stroke="#4D4D4D" stroke-width="1.5" stroke-linecap="round" stroke-linejoin="round"/>
<path d="M8.33203 18.3332V25.8332C8.33203 28.9758 8.33203 30.5472 9.30835 31.5235C10.2846 32.4998 11.856 32.4998 14.9987 32.4998H29.9987C33.1414 32.4998 34.7127 32.4998 35.689 31.5235C36.6654 30.5472 36.6654 28.9758 36.6654 25.8332V20.8332C36.6654 17.6905 36.6654 16.1191 35.689 15.1428C34.7127 14.1665 33.1414 14.1665 29.9987 14.1665H15.832" stroke="#4D4D4D" stroke-width="1.5" stroke-linecap="round" stroke-linejoin="round"/>
<path d="M25.4154 23.3332C25.4154 24.944 24.1095 26.2498 22.4987 26.2498C20.8879 26.2498 19.582 24.944 19.582 23.3332C19.582 21.7223 20.8879 20.4165 22.4987 20.4165C24.1095 20.4165 25.4154 21.7223 25.4154 23.3332Z" stroke="#4D4D4D" stroke-width="1.5" stroke-linecap="round" stroke-linejoin="round"/>
</svg>
