<svg width="40" height="40" viewBox="0 0 40 40" fill="none" xmlns="http://www.w3.org/2000/svg">
<path d="M23.3333 5H8.33333C6.49238 5 5 6.49238 5 8.33333C5 10.1743 6.49238 11.6667 8.33333 11.6667H30C30 10.1167 30 9.34173 29.8297 8.7059C29.3673 6.98045 28.0195 5.6327 26.2942 5.17037C25.6583 5 24.8833 5 23.3333 5Z" stroke="#0061FF" stroke-width="1.5" stroke-linecap="round" stroke-linejoin="round"/>
<path d="M20 35.0002H25C29.714 35.0002 32.071 35.0002 33.5355 33.5357C35 32.0712 35 29.7142 35 25.0002V21.6668C35 16.9528 35 14.5958 33.5355 13.1313C32.071 11.6668 29.714 11.6668 25 11.6668H11.6667M5 20.0002V8.3335" stroke="#0061FF" stroke-width="1.5" stroke-linecap="round" stroke-linejoin="round"/>
<path d="M34.9987 20H31.6654C30.8904 20 30.5029 20 30.185 20.0852C29.3222 20.3163 28.6484 20.9902 28.4172 21.853C28.332 22.1708 28.332 22.5583 28.332 23.3333C28.332 24.1083 28.332 24.4958 28.4172 24.8137C28.6484 25.6765 29.3222 26.3503 30.185 26.5815C30.5029 26.6667 30.8904 26.6667 31.6654 26.6667H34.9987" stroke="#0061FF" stroke-width="1.5" stroke-linecap="round" stroke-linejoin="round"/>
<path d="M16.6667 29.1668H10.8333M10.8333 29.1668H5M10.8333 29.1668V23.3335M10.8333 29.1668V35.0002" stroke="#0061FF" stroke-width="1.5" stroke-linecap="round" stroke-linejoin="round"/>
</svg>
